<svg width="165" height="232" viewBox="0 0 165 232" fill="none" xmlns="http://www.w3.org/2000/svg">
<path d="M137.584 111.228C152.299 110.206 163.113 95.1896 161.737 77.6885C160.361 60.1874 147.317 46.8287 132.603 47.851C117.888 48.8734 107.074 63.8896 108.45 81.3907C109.825 98.8919 122.869 112.251 137.584 111.228Z" fill="#FFC57B"/>
<path d="M137.026 111.226H135.738V231.933H137.026V111.226Z" fill="white"/>
<path d="M137.346 108.679L137.5 112.956L139.556 116.916L130.979 116.504L134.584 113.095L134.177 109.208L137.346 108.679Z" fill="#FFC579"/>
<path d="M85.6252 72.8632C100.34 71.7211 111.154 54.9473 109.778 35.3978C108.402 15.8482 95.3583 0.925934 80.6435 2.06795C65.9287 3.20996 55.1152 19.9838 56.4909 39.5333C57.8665 59.0829 70.9104 74.0052 85.6252 72.8632Z" fill="#FFC57B"/>
<path d="M85.0668 72.8604H83.7793V207.696H85.0668V72.8604Z" fill="white"/>
<path d="M85.3868 70.0156L85.5413 74.7935L87.5973 79.2165L79.0195 78.7571L82.6251 74.9483L82.2176 70.607L85.3868 70.0156Z" fill="#FFC579"/>
<path d="M31.6252 94.7459C46.34 93.7311 57.1535 78.8259 55.7779 61.4542C54.4022 44.0825 41.3583 30.8226 26.6435 31.8374C11.9287 32.8522 1.11519 47.7573 2.49085 65.129C3.86651 82.5007 16.9104 95.7606 31.6252 94.7459Z" fill="#FFC57B"/>
<path d="M31.0649 94.7441H29.7773V214.559H31.0649V94.7441Z" fill="white"/>
<path d="M31.3868 92.2158L31.5413 96.4614L33.5973 100.392L25.0195 99.9834L28.6251 96.599L28.2176 92.7413L31.3868 92.2158Z" fill="#FFC579"/>
</svg>
