<svg width="78" height="78" viewBox="0 0 78 78" fill="none" xmlns="http://www.w3.org/2000/svg">
<path d="M39.0006 7.7998C35.8976 7.7998 32.9216 9.03248 30.7275 11.2267C28.5333 13.4208 27.3006 16.3968 27.3006 19.4998C27.3006 22.6028 28.5333 25.5788 30.7275 27.773C32.9216 29.9671 35.8976 31.1998 39.0006 31.1998C42.1036 31.1998 45.0796 29.9671 47.2738 27.773C49.4679 25.5788 50.7006 22.6028 50.7006 19.4998C50.7006 16.3968 49.4679 13.4208 47.2738 11.2267C45.0796 9.03248 42.1036 7.7998 39.0006 7.7998ZM19.7073 38.9842C19.5747 39.6186 19.5084 40.2738 19.5084 40.9498V54.5998C19.5059 57.4312 20.1212 60.2291 21.3114 62.7981C22.5017 65.3672 24.2381 67.6456 26.3997 69.4744L25.7328 69.6694C23.7538 70.2003 21.6897 70.3361 19.6582 70.0691C17.6268 69.8021 15.6678 69.1375 13.8932 68.1133C12.1186 67.0891 10.5632 65.7254 9.31572 64.1C8.06825 62.4745 7.1532 60.6193 6.62282 58.6402L4.09952 49.2217C3.90078 48.4796 3.85016 47.7056 3.95055 46.9439C4.05095 46.1823 4.30039 45.4478 4.68463 44.7825C5.06887 44.1173 5.58039 43.5342 6.18998 43.0666C6.79957 42.599 7.49529 42.2561 8.23742 42.0574L19.7073 38.9842ZM51.6171 69.4744C53.7787 67.6456 55.5152 65.3672 56.7054 62.7981C57.8956 60.2291 58.511 57.4312 58.5084 54.5998V40.9498C58.5058 40.2738 58.4408 39.6186 58.3134 38.9842L69.7794 42.0574C71.2775 42.4595 72.5545 43.4401 73.3298 44.7836C74.105 46.1271 74.3149 47.7235 73.9134 49.2217L71.3901 58.6402C70.8445 60.6754 69.8923 62.5789 68.591 64.236C67.2896 65.893 65.6661 67.2693 63.8183 68.2818C61.9705 69.2942 59.9368 69.9219 57.8398 70.1269C55.7428 70.3318 53.626 70.1099 51.6171 69.4744ZM64.3506 15.5998C61.7647 15.5998 59.2848 16.627 57.4563 18.4555C55.6278 20.284 54.6006 22.7639 54.6006 25.3498C54.6006 27.9357 55.6278 30.4156 57.4563 32.2441C59.2848 34.0726 61.7647 35.0998 64.3506 35.0998C66.9365 35.0998 69.4164 34.0726 71.2449 32.2441C73.0734 30.4156 74.1006 27.9357 74.1006 25.3498C74.1006 22.7639 73.0734 20.284 71.2449 18.4555C69.4164 16.627 66.9365 15.5998 64.3506 15.5998ZM13.6506 15.5998C11.0648 15.5998 8.58481 16.627 6.75633 18.4555C4.92785 20.284 3.90062 22.7639 3.90062 25.3498C3.90062 27.9357 4.92785 30.4156 6.75633 32.2441C8.58481 34.0726 11.0648 35.0998 13.6506 35.0998C16.2365 35.0998 18.7164 34.0726 20.5449 32.2441C22.3734 30.4156 23.4006 27.9357 23.4006 25.3498C23.4006 22.7639 22.3734 20.284 20.5449 18.4555C18.7164 16.627 16.2365 15.5998 13.6506 15.5998ZM29.2506 35.0998C27.6991 35.0998 26.2111 35.7161 25.114 36.8132C24.017 37.9103 23.4006 39.3983 23.4006 40.9498V54.5998C23.4006 58.7372 25.0442 62.7051 27.9697 65.6307C30.8953 68.5562 34.8632 70.1998 39.0006 70.1998C43.138 70.1998 47.1059 68.5562 50.0315 65.6307C52.957 62.7051 54.6006 58.7372 54.6006 54.5998V40.9498C54.6006 39.3983 53.9843 37.9103 52.8872 36.8132C51.7901 35.7161 50.3021 35.0998 48.7506 35.0998H29.2506Z" fill="white"/>
</svg>
