<svg width="78" height="78" viewBox="0 0 78 78" fill="none" xmlns="http://www.w3.org/2000/svg">
<path d="M39.0006 56.1441L25.5131 64.2691C24.9172 64.6483 24.2943 64.8108 23.6443 64.7566C22.9943 64.7025 22.4256 64.4858 21.9381 64.1066C21.4506 63.7275 21.0714 63.2541 20.8006 62.6864C20.5297 62.1187 20.4756 61.4817 20.6381 60.7754L24.2131 45.4191L12.2693 35.1004C11.7277 34.6129 11.3897 34.0571 11.2553 33.4331C11.121 32.8091 11.1611 32.2003 11.3756 31.6066C11.5901 31.013 11.9151 30.5255 12.3506 30.1441C12.7861 29.7628 13.3819 29.5191 14.1381 29.4129L29.9006 28.0316L35.9943 13.5691C36.2652 12.9191 36.6855 12.4316 37.2553 12.1066C37.8252 11.7816 38.4069 11.6191 39.0006 11.6191C39.5942 11.6191 40.176 11.7816 40.7458 12.1066C41.3157 12.4316 41.736 12.9191 42.0068 13.5691L48.1006 28.0316L63.8631 29.4129C64.6214 29.5212 65.2172 29.765 65.6506 30.1441C66.0839 30.5233 66.4089 31.0108 66.6256 31.6066C66.8422 32.2025 66.8834 32.8124 66.7491 33.4364C66.6147 34.0604 66.2757 34.6151 65.7318 35.1004L53.7881 45.4191L57.3631 60.7754C57.5256 61.4796 57.4714 62.1166 57.2006 62.6864C56.9297 63.2562 56.5506 63.7296 56.0631 64.1066C55.5756 64.4836 55.0068 64.7003 54.3568 64.7566C53.7068 64.813 53.0839 64.6505 52.4881 64.2691L39.0006 56.1441Z" fill="white"/>
</svg>
