<svg width="80" height="80" viewBox="0 0 80 80" fill="none" xmlns="http://www.w3.org/2000/svg">
<rect width="80" height="80" rx="15" fill="#EF578F"/>
<path d="M39.9961 64.0019C36.6761 64.0019 33.5561 63.3715 30.6361 62.1107C27.7161 60.8499 25.1761 59.1403 23.0161 56.9819C20.8561 54.8235 19.1465 52.2835 17.8873 49.3619C16.6281 46.4403 15.9977 43.3203 15.9961 40.0019C15.9945 36.6835 16.6249 33.5635 17.8873 30.6419C19.1497 27.7203 20.8593 25.1803 23.0161 23.0219C25.1729 20.8635 27.7129 19.154 30.6361 17.8932C33.5593 16.6324 36.6793 16.002 39.9961 16.002C43.3129 16.002 46.4329 16.6324 49.3561 17.8932C52.2793 19.154 54.8193 20.8635 56.9761 23.0219C59.1329 25.1803 60.8433 27.7203 62.1073 30.6419C63.3713 33.5635 64.0009 36.6835 63.9961 40.0019C63.9913 43.3203 63.3609 46.4403 62.1049 49.3619C60.8489 52.2835 59.1393 54.8235 56.9761 56.9819C54.8129 59.1403 52.2729 60.8507 49.3561 62.1131C46.4393 63.3755 43.3193 64.0051 39.9961 64.0019ZM39.9961 59.2019C45.3561 59.2019 49.8961 57.3419 53.6161 53.6219C57.3361 49.9019 59.1961 45.3619 59.1961 40.0019C59.1961 34.6419 57.3361 30.1019 53.6161 26.3819C49.8961 22.6619 45.3561 20.8019 39.9961 20.8019C34.6361 20.8019 30.0961 22.6619 26.3761 26.3819C22.6561 30.1019 20.7961 34.6419 20.7961 40.0019C20.7961 45.3619 22.6561 49.9019 26.3761 53.6219C30.0961 57.3419 34.6361 59.2019 39.9961 59.2019ZM39.9961 54.4019C35.9961 54.4019 32.5961 53.0019 29.7961 50.2019C26.9961 47.4019 25.5961 44.0019 25.5961 40.0019C25.5961 36.0019 26.9961 32.6019 29.7961 29.8019C32.5961 27.0019 35.9961 25.6019 39.9961 25.6019C43.9961 25.6019 47.3961 27.0019 50.1961 29.8019C52.9961 32.6019 54.3961 36.0019 54.3961 40.0019C54.3961 44.0019 52.9961 47.4019 50.1961 50.2019C47.3961 53.0019 43.9961 54.4019 39.9961 54.4019ZM39.9961 49.6019C42.6361 49.6019 44.8961 48.6619 46.7761 46.7819C48.6561 44.9019 49.5961 42.6419 49.5961 40.0019C49.5961 37.3619 48.6561 35.1019 46.7761 33.2219C44.8961 31.3419 42.6361 30.4019 39.9961 30.4019C37.3561 30.4019 35.0961 31.3419 33.2161 33.2219C31.3361 35.1019 30.3961 37.3619 30.3961 40.0019C30.3961 42.6419 31.3361 44.9019 33.2161 46.7819C35.0961 48.6619 37.3561 49.6019 39.9961 49.6019ZM39.9961 44.8019C38.6761 44.8019 37.5465 44.3323 36.6073 43.3931C35.6681 42.4539 35.1977 41.3235 35.1961 40.0019C35.1945 38.6803 35.6649 37.5507 36.6073 36.6131C37.5497 35.6755 38.6793 35.2051 39.9961 35.2019C41.3129 35.1987 42.4433 35.6691 43.3873 36.6131C44.3313 37.5571 44.8009 38.6867 44.7961 40.0019C44.7913 41.3171 44.3217 42.4475 43.3873 43.3931C42.4529 44.3387 41.3225 44.8083 39.9961 44.8019Z" fill="white"/>
</svg>
