<svg width="1437" height="323" viewBox="0 0 1437 323" fill="none" xmlns="http://www.w3.org/2000/svg">
<path d="M1385.07 260.541C1306.42 260.541 1226.8 250.018 1147.72 229.127C1070.91 208.836 994.422 178.776 920.392 139.782C803.813 78.3755 729.83 13.6518 718.781 3.72449C677.026 62.8241 613.607 109.456 530.257 142.334C463.083 168.832 382.882 186.508 291.881 194.87C137.022 209.104 2.69838 191.147 1.3596 190.963C0.939594 190.906 0.562337 190.702 0.310824 190.396C0.0593105 190.09 -0.0458465 189.708 0.0184653 189.333C0.0827771 188.958 0.311295 188.621 0.653759 188.397C0.996223 188.172 1.42458 188.078 1.84458 188.136C3.17966 188.319 137.159 206.223 291.621 192.019C433.98 178.928 623.363 135.105 717.141 0.673993C717.27 0.489168 717.444 0.33308 717.651 0.217619C717.858 0.102158 718.091 0.0303791 718.334 0.00774713C718.577 -0.0148849 718.822 0.0122267 719.051 0.0870232C719.28 0.16182 719.487 0.282327 719.656 0.439351C720.409 1.13912 796.415 71.1704 922.105 137.363C1038.05 198.423 1221.2 268.616 1435.3 256.234C1435.72 256.21 1436.14 256.337 1436.46 256.588C1436.77 256.838 1436.97 257.191 1437 257.57C1437.02 257.948 1436.88 258.321 1436.6 258.606C1436.32 258.891 1435.93 259.065 1435.5 259.089C1418.75 260.058 1401.94 260.542 1385.07 260.541Z" fill="#FFD802"/>
<path d="M180.34 266.592C179.522 266.551 178.739 266.28 178.1 265.817C177.461 265.354 176.998 264.722 176.776 264.01L156.167 201.438C155.993 200.909 155.954 200.351 156.055 199.807C156.155 199.263 156.392 198.747 156.746 198.298C157.101 197.849 157.564 197.479 158.101 197.217C158.638 196.954 159.234 196.806 159.844 196.783L201.827 195.222C202.465 195.198 203.101 195.313 203.681 195.556C204.26 195.8 204.767 196.165 205.159 196.622C205.551 197.079 205.816 197.613 205.933 198.181C206.049 198.749 206.014 199.334 205.83 199.888L184.456 264.021C184.218 264.773 183.712 265.434 183.017 265.9C182.322 266.366 181.476 266.612 180.611 266.6C180.52 266.599 180.429 266.597 180.34 266.592Z" fill="#4E98FF"/>
<path d="M381.467 248.685C380.639 248.763 379.804 248.612 379.079 248.255C378.354 247.898 377.775 247.353 377.423 246.694L345.408 189.044C345.137 188.557 344.998 188.023 345 187.481C345.002 186.94 345.146 186.407 345.421 185.921C345.695 185.436 346.093 185.011 346.584 184.681C347.076 184.35 347.647 184.121 348.255 184.012L390.103 176.504C390.74 176.39 391.398 176.411 392.024 176.564C392.65 176.717 393.225 176.998 393.7 177.384C394.176 177.771 394.539 178.25 394.759 178.784C394.979 179.317 395.05 179.889 394.965 180.451L385.132 245.608C385.029 246.371 384.642 247.082 384.028 247.633C383.415 248.184 382.611 248.543 381.741 248.654C381.649 248.667 381.558 248.678 381.467 248.685Z" fill="#4E98FF"/>
<path d="M604.481 182.642C603.725 182.925 602.888 182.991 602.087 182.83C601.287 182.67 600.563 182.291 600.017 181.747L551.059 134.386C550.645 133.986 550.34 133.507 550.166 132.986C549.992 132.465 549.954 131.916 550.056 131.38C550.157 130.844 550.395 130.336 550.751 129.894C551.107 129.452 551.572 129.089 552.11 128.831L589.168 111.07C589.732 110.8 590.36 110.654 591.001 110.643C591.641 110.633 592.275 110.758 592.85 111.01C593.424 111.261 593.923 111.631 594.304 112.089C594.685 112.546 594.938 113.078 595.04 113.639L606.94 178.761C607.091 179.519 606.956 180.301 606.556 180.985C606.157 181.669 605.515 182.216 604.729 182.543C604.647 182.578 604.564 182.612 604.481 182.642Z" fill="#4E98FF"/>
<path d="M1314.04 322.937C1313.23 322.818 1312.49 322.479 1311.91 321.968C1311.33 321.458 1310.95 320.801 1310.81 320.09L1298.06 257.551C1297.96 257.023 1297.99 256.48 1298.15 255.964C1298.32 255.447 1298.62 254.971 1299.03 254.572C1299.44 254.173 1299.94 253.861 1300.51 253.66C1301.08 253.459 1301.69 253.374 1302.3 253.412L1344.27 256.035C1344.91 256.075 1345.53 256.249 1346.07 256.541C1346.62 256.834 1347.08 257.237 1347.41 257.717C1347.75 258.197 1347.94 258.74 1347.99 259.301C1348.04 259.862 1347.93 260.424 1347.68 260.941L1318.45 320.857C1318.12 321.561 1317.54 322.149 1316.79 322.532C1316.04 322.914 1315.17 323.069 1314.31 322.972C1314.22 322.963 1314.13 322.951 1314.04 322.937Z" fill="#4E98FF"/>
<path d="M1090.45 281.65C1089.69 281.369 1089.04 280.881 1088.6 280.256C1088.17 279.63 1087.96 278.898 1088.01 278.161L1091.39 213.127C1091.42 212.578 1091.59 212.041 1091.89 211.559C1092.18 211.076 1092.6 210.661 1093.1 210.343C1093.6 210.026 1094.18 209.816 1094.79 209.728C1095.39 209.64 1096.02 209.678 1096.6 209.837L1137.13 220.841C1137.75 221.008 1138.31 221.305 1138.77 221.707C1139.24 222.108 1139.59 222.603 1139.79 223.149C1140 223.695 1140.05 224.277 1139.95 224.847C1139.86 225.416 1139.61 225.957 1139.23 226.423L1095.31 280.453C1094.81 281.09 1094.09 281.562 1093.25 281.794C1092.42 282.026 1091.52 282.007 1090.71 281.738C1090.62 281.711 1090.53 281.682 1090.45 281.65Z" fill="#4E98FF"/>
<path d="M838.425 167.215C837.786 166.712 837.322 166.049 837.098 165.318C836.875 164.588 836.902 163.827 837.178 163.142L860.46 102.324C860.657 101.811 860.983 101.352 861.413 100.985C861.843 100.617 862.366 100.349 862.942 100.202C863.517 100.056 864.131 100.033 864.736 100.137C865.341 100.241 865.921 100.469 866.431 100.802L901.59 123.771C902.125 124.121 902.568 124.577 902.884 125.101C903.2 125.626 903.378 126.204 903.405 126.787C903.431 127.369 903.305 127.94 903.036 128.452C902.768 128.964 902.365 129.401 901.861 129.727L843.419 167.576C842.744 168.027 841.91 168.252 841.047 168.216C840.183 168.18 839.337 167.885 838.641 167.377C838.567 167.325 838.495 167.27 838.425 167.215Z" fill="#4E98FF"/>
</svg>
