<svg width="104" height="83" viewBox="0 0 104 83" fill="none" xmlns="http://www.w3.org/2000/svg">
<g clip-path="url(#clip0_1193_1738)">
<path d="M69.4901 18.1806C69.4749 18.1832 69.4521 18.187 69.4244 18.1916C68.8833 18.2813 65.6113 18.7869 62.3124 17.5285C60.9149 16.9953 61.3917 16.8625 58.2792 15.009C54.6302 12.8361 53.6937 12.8513 53.422 11.8381C52.8794 9.81484 55.7767 6.6343 57.6944 6.84371C58.1993 6.89884 58.74 7.20028 59.581 6.99589C59.7658 6.95098 60.5746 6.75441 60.9689 6.08393C61.3207 5.48581 61.0228 5.05435 61.1642 4.56381C61.5356 3.27621 64.6309 2.63363 67.3446 3.08765C68.9055 3.34879 70.1195 4.0617 72.4838 5.47687C76.599 7.94002 78.6565 9.17159 79.119 11.0585C79.5573 12.847 78.5053 13.6176 79.2704 15.532C79.9828 17.3147 81.1143 17.1956 81.5037 18.6377C82.1303 20.9582 79.8047 23.505 78.8359 24.5659C77.7738 25.7291 76.758 26.3675 75.4094 27.215C73.7167 28.2788 72.8704 28.8107 71.8529 28.7565C70.0081 28.6584 64.5262 28.9924 64.4547 27.4636C64.4279 26.8906 57.7793 27.3598 61.0531 21.1913C61.4546 20.4347 69.321 21.2429 69.4249 20.8082" fill="#2F2E41"/>
<path d="M72.6723 22.1279L78.3268 30.5743L62.0957 33.8614L63.1295 23.2869L72.6723 22.1279Z" fill="#FFB6B6"/>
<path opacity="0.1" d="M72.6723 22.1279L78.3268 30.5743L62.0957 33.8614L63.1295 23.2869L72.6723 22.1279Z" fill="black"/>
<path d="M60.8811 28.3828L78.3872 27.6523L86.1678 31.9134L85.8031 59.3059L93.9483 74.7675L52.8574 66.9758L56.0183 55.2884L54.5594 30.696L60.8811 28.3828Z" fill="#EF578F"/>
<path d="M0.47146 81.5973C-0.0874367 80.7151 -0.153441 79.625 0.294933 78.6814L6.95784 64.6618C7.45512 63.6155 8.52411 62.9395 9.68122 62.9395H93.839C94.9639 62.9395 95.9873 63.5592 96.5098 64.5568L103.652 78.19C104.145 79.1324 104.113 80.2392 103.565 81.151C103.017 82.0626 102.055 82.6094 100.993 82.6136L3.03016 82.9998H3.0179C1.9794 82.9998 1.02809 82.4761 0.47146 81.5973Z" fill="white"/>
<path d="M0.47146 81.5973C-0.0874367 80.7151 -0.153441 79.625 0.294933 78.6814L6.95784 64.6618C7.45512 63.6155 8.52411 62.9395 9.68122 62.9395H93.839C94.9639 62.9395 95.9873 63.5592 96.5098 64.5568L103.652 78.19C104.145 79.1324 104.113 80.2392 103.565 81.151C103.017 82.0626 102.055 82.6094 100.993 82.6136L3.03016 82.9998H3.0179C1.9794 82.9998 1.02809 82.4761 0.47146 81.5973ZM9.68122 63.2565C8.64556 63.2565 7.68878 63.8616 7.24371 64.7981L0.580797 78.8177C0.179465 79.6621 0.238513 80.6378 0.738774 81.4275C1.23703 82.2141 2.08838 82.6827 3.01795 82.6827H3.02893L100.991 82.2966C101.942 82.2929 102.803 81.8034 103.293 80.9874C103.784 80.1714 103.813 79.1807 103.371 78.3374L96.2295 64.7039C95.7618 63.8112 94.8458 63.2565 93.839 63.2565H9.68122Z" fill="#3F3D56"/>
<path d="M86.0043 77.6409L51.2747 75.2498C50.7619 75.2145 50.353 74.8683 50.2329 74.3678C50.1128 73.8674 50.3199 73.373 50.7606 73.1082L58.4403 68.4937C58.6353 68.3764 58.859 68.3195 59.0858 68.3304L89.1266 69.6979C89.5238 69.7159 89.8785 69.9331 90.0755 70.2789C90.2726 70.6247 90.2788 71.041 90.0923 71.3926L87.1014 77.0308C86.9006 77.4092 86.5071 77.6436 86.0833 77.6436C86.0571 77.6436 86.0307 77.6427 86.0043 77.6409Z" fill="#3F3D56"/>
<path d="M50.9727 73.8545L85.5595 76.2285L88.2948 70.3239L58.6381 69.1592L50.9727 73.8545Z" fill="white"/>
<path d="M67.9929 24.9726C73.733 24.9726 78.3862 20.3127 78.3862 14.5644C78.3862 8.81615 73.733 4.15625 67.9929 4.15625C62.2529 4.15625 57.5996 8.81615 57.5996 14.5644C57.5996 20.3127 62.2529 24.9726 67.9929 24.9726Z" fill="#FFB6B6"/>
<path d="M71.3398 15.2382C71.3245 15.2408 71.3017 15.2447 71.2741 15.2492C70.7329 15.339 67.4609 15.8445 64.162 14.5861C62.7645 14.053 63.2413 13.9201 60.1288 12.0667C56.4798 9.8937 55.5434 9.90889 55.2716 8.89567C54.729 6.87246 57.6263 3.69192 59.544 3.90133C60.0489 3.95646 60.5896 4.2579 61.4306 4.0535C61.6154 4.0086 62.4242 3.81202 62.8185 3.14155C63.1703 2.54343 62.8724 2.11197 63.0138 1.62143C63.3852 0.33383 66.4805 -0.308751 69.1942 0.145267C70.7551 0.406403 71.9691 1.11932 74.3334 2.53449C78.4486 4.99764 80.5061 6.22921 80.9686 8.11612C81.4069 9.90457 80.3549 10.6752 81.12 12.5897C81.8324 14.3723 82.9639 14.2532 83.3533 15.6953C83.9799 18.0158 81.6543 20.5626 80.6855 21.6235C79.6234 22.7867 78.6076 23.4251 77.259 24.2726C75.5664 25.3364 74.72 25.8683 73.7025 25.8142C71.8577 25.716 70.0228 24.0418 69.9513 22.513C69.9245 21.94 70.1632 21.7682 70.7539 19.7985C71 18.9779 71.1707 18.3005 71.2745 17.8658" fill="#2F2E41"/>
<path d="M78.4632 71.0026C79.1319 71.0291 79.6407 71.6291 79.6776 72.2791C79.7159 72.9538 79.2475 73.5753 78.6847 73.8965C78.0254 74.2728 77.2026 74.3332 76.4603 74.2684C75.7925 74.2101 75.0661 74.0022 74.6364 73.45C74.2749 72.9855 74.1419 72.2835 74.4493 71.7561C74.7542 71.2333 75.4026 71.0889 75.9449 71.2987C76.5188 71.5208 76.8797 72.0435 76.8833 72.6612C76.8873 73.346 76.4924 73.9786 75.9383 74.3572C75.3407 74.7656 74.5884 74.8969 73.877 74.8952C73.1018 74.8935 72.3301 74.7305 71.617 74.428C70.9489 74.1446 70.2814 73.7358 69.8037 73.1804C69.3558 72.6597 69.0877 71.9373 69.3363 71.2619C69.5402 70.7081 70.0553 70.3685 70.6453 70.4154C71.1854 70.4584 71.7317 70.7722 71.9714 71.272C72.2419 71.8359 72.1204 72.5124 71.7762 73.0165C71.3787 73.5986 70.7505 73.9257 70.0529 73.973C69.3104 74.0233 68.5751 73.759 67.9643 73.3506C67.3987 72.9724 66.9017 72.4882 66.2945 72.1736C66.0023 72.0222 65.6843 71.9259 65.3534 71.9263C64.9321 71.9269 64.5271 72.0654 64.1174 72.1458C63.7702 72.2139 63.4123 72.2536 63.0696 72.1425C62.7763 72.0474 62.5019 71.8731 62.3172 71.6232C62.1425 71.3867 62.0812 71.0905 62.1801 70.8098C62.2577 70.5897 62.6102 70.6845 62.5318 70.9069C62.3508 71.4202 62.9717 71.7974 63.4063 71.8445C63.736 71.8802 64.0762 71.7848 64.3943 71.7103C64.7258 71.6326 65.0648 71.5532 65.4076 71.5616C66.622 71.5916 67.4248 72.6311 68.4039 73.1951C69.4333 73.7881 70.9408 73.8294 71.5712 72.6511C71.8001 72.2231 71.8474 71.6543 71.5329 71.2544C71.2709 70.9213 70.8054 70.722 70.3835 70.7866C69.8536 70.8676 69.5897 71.373 69.609 71.8754C69.6326 72.4903 70.0605 72.9898 70.5169 73.3581C71.5328 74.1778 72.8801 74.5954 74.1795 74.5221C74.7892 74.4877 75.4371 74.3287 75.9107 73.9223C76.3199 73.571 76.5992 72.9999 76.5009 72.4527C76.4158 71.9792 76.0193 71.6201 75.5401 71.5724C75.05 71.5237 74.6669 71.8721 74.6451 72.3624C74.6205 72.9139 74.9477 73.3742 75.4218 73.6254C75.9589 73.9099 76.6097 73.9452 77.2049 73.9141C77.8368 73.8812 78.4953 73.7144 78.9375 73.2326C79.3147 72.8215 79.4577 72.2117 79.1101 71.7361C78.9567 71.5262 78.726 71.3783 78.4632 71.3679C78.2293 71.3586 78.2281 70.9933 78.4632 71.0026Z" fill="#EF578F"/>
<path d="M61.8421 70.6113L62.0281 69.4599L72.3462 49.7106C72.5171 49.3835 72.922 49.2566 73.2487 49.4278C73.5753 49.5989 73.702 50.0044 73.5311 50.3315L63.2175 70.072L62.3743 70.8902C62.2746 70.9865 62.1307 71.0072 62.0079 70.9428C61.8852 70.8785 61.8201 70.7484 61.8421 70.6113Z" fill="#3F3D56"/>
<path d="M68.8756 58.0463C70.0397 58.2658 71.1344 58.7613 72.068 59.4913L72.1206 59.5026L72.1312 59.4502L83.3767 61.2141L82.562 46.2352L91.0847 41.5605L89.0702 66.8801C88.634 68.4971 86.9583 69.4415 85.3516 68.9758L71.0366 64.8523L71.0723 64.6759L71.0223 64.6624C69.8782 64.9714 68.6769 65.0015 67.5189 64.7501C64.6137 64.1614 62.5622 62.183 62.9367 60.3316C63.3111 58.4801 65.9695 57.457 68.8756 58.0463Z" fill="#FFB6B6"/>
<path d="M76.5645 34.5915L86.1685 31.9131C86.1685 31.9131 91.2137 35.6263 91.8216 39.6439C91.8939 40.1217 92.0944 62.3792 91.8823 62.9579C90.3115 67.2457 81.6704 60.4013 81.6704 60.4013L76.5645 34.5915Z" fill="#EF578F"/>
<path d="M34.9052 74.5956L33.9096 73.741C33.7614 73.6137 33.5811 73.5294 33.3883 73.4972L11.2038 69.7944C10.6974 69.7099 10.3234 69.3437 10.2276 68.8387C10.1319 68.3336 10.3458 67.8555 10.786 67.591L18.7004 62.8356C18.965 62.6766 19.2762 62.6266 19.5774 62.6947L47.7056 69.0587C48.2524 69.1824 48.6174 69.6249 48.6353 70.1861C48.6532 70.7472 48.3172 71.2122 47.7793 71.3707L36.0185 74.8347C35.9069 74.8676 35.7931 74.8837 35.6803 74.8837C35.3995 74.8837 35.1248 74.7842 34.9052 74.5956Z" fill="#3F3D56"/>
<path d="M24.2219 46.9788C25.3216 47.4198 26.2998 48.1181 27.0747 49.0153L27.124 49.0366L27.1446 48.9872L37.8363 52.898L49.2521 34.3877L55.5631 38.3046L42.3268 59.5606C41.5862 61.0624 39.7596 61.6641 38.2734 60.8957L25.0263 54.0749L25.0955 53.9088L25.049 53.8859C23.8668 53.9672 22.6824 53.7638 21.5949 53.2927C18.8586 52.1518 17.2283 49.8132 17.9536 48.0693C18.6789 46.3255 21.4847 45.8371 24.2219 46.9788Z" fill="#FFB6B6"/>
<path d="M61.4994 37.7295L56.4501 30.168C56.4501 30.168 50.4415 31.359 47.9664 34.5788C47.657 34.9813 37.0295 50.4165 36.961 51.0901C36.4817 55.8054 48.6961 58.0147 48.6961 58.0147L61.4994 37.7295Z" fill="#EF578F"/>
<path d="M34.3556 74.8232L8.92527 71.3033C8.07416 71.1856 7.37169 70.5748 7.13555 69.7475L1.29488 49.2758C1.09697 48.582 1.24472 47.8635 1.70025 47.3045C2.15579 46.7455 2.82882 46.4566 3.5475 46.5115L29.1686 48.4772C30.0955 48.5483 30.8736 49.202 31.1049 50.1037L36.7548 72.1295C36.9351 72.8323 36.7548 73.5753 36.2724 74.1168C35.8571 74.5832 35.2681 74.8437 34.6541 74.8437C34.5551 74.8437 34.4553 74.837 34.3556 74.8232Z" fill="#3F3D56"/>
<path d="M28.6879 32.8912C28.8365 33.0549 29.3759 32.8881 30.4487 32.5478C31.2642 32.2891 31.3898 32.195 31.4673 32.1275C31.74 31.8902 31.8115 31.6407 32.0816 30.5384C32.5664 28.5601 32.5814 28.3636 32.8304 27.9438C32.9161 27.7992 33.1326 27.4543 33.0798 27.4116C33.0256 27.3677 32.7912 27.7269 32.3581 27.8627C31.936 27.995 31.7459 27.7831 31.3856 27.837C30.9197 27.9068 30.6427 28.3499 30.2082 29.0672C29.8235 29.7025 29.7751 29.958 29.2356 31.2201C29.0828 31.5777 28.9597 31.8544 28.8653 32.0731C27.8062 33.063 26.7557 34.066 25.7148 35.0777C25.7349 35.0469 25.7538 35.018 25.7702 34.9928C26.2312 34.2838 26.2939 33.9038 26.2872 33.619C26.2764 33.1576 26.0563 32.8062 25.6167 32.1222C25.1859 31.4519 24.7777 31.0096 24.2859 30.4818C23.6412 29.79 23.3189 29.4441 23.1905 29.4669C22.2737 29.6294 22.0285 35.8813 23.182 36.9994C23.0201 37.1152 22.886 37.2365 22.7891 37.3559C21.8016 36.2579 20.11 35.0312 18.236 34.8802C17.0807 34.7871 16.4431 35.1501 16.2448 35.2749C15.3285 35.8512 14.7836 37.0048 15.0573 37.3303C15.3124 37.6339 16.0494 36.9438 17.4938 36.9818C18.5016 37.0084 19.2888 37.3745 19.7562 37.5919C20.7366 38.0479 21.0952 38.4962 21.8181 38.8033C21.4792 39.083 21.2107 39.432 21.0422 39.7575C20.9837 39.8178 20.9256 39.8784 20.8672 39.9387C20.1214 39.5178 19.2814 39.209 18.401 39.1381C17.2457 39.0449 16.6081 39.408 16.4098 39.5327C15.7922 39.9212 15.3447 40.5712 15.2015 41.0538C15.1078 41.0726 15.0212 41.0941 14.9419 41.1173C14.6619 40.4837 13.8288 39.8155 13.0541 39.4788C11.7206 38.8991 9.98837 39.0528 9.80302 39.604C9.79711 39.6216 9.79563 39.6389 9.79302 39.6563C9.93919 38.4751 10.1377 37.3023 10.3856 36.138C10.394 36.1712 10.4046 36.2048 10.4187 36.2402C10.7479 37.0682 11.6374 37.8629 12.8499 38.2752C13.8015 38.5987 14.2001 38.431 14.3014 38.3842C14.3981 38.3394 14.8159 38.1598 14.9182 37.8028C15.108 37.1407 13.9458 35.1842 13.2128 35.8405C10.8574 37.949 10.5342 36.2416 10.426 35.9542C10.6263 35.0337 10.8568 34.1185 11.1153 33.2085C11.1197 33.214 11.1236 33.2195 11.1282 33.2251C11.6428 33.8501 12.6331 34.2904 13.7969 34.3099C14.7103 34.3251 15.0087 34.0691 15.0834 34.0004C15.1546 33.9347 15.4664 33.663 15.4559 33.3255C15.4365 32.6998 14.3249 32.1901 13.4355 32.1018C12.6159 32.0203 11.7333 32.2716 11.2956 32.5898C11.4991 31.9084 11.7181 31.2298 11.9516 30.5543C12.5498 30.7989 13.397 30.766 14.2294 30.3934C14.9158 30.0862 15.0493 29.7911 15.081 29.7138C15.1113 29.64 15.2493 29.3287 15.1241 29.0807C14.8919 28.6208 13.8857 28.6286 13.1918 28.873C12.906 28.9736 12.6343 29.1285 12.4015 29.3036C12.8154 28.1963 13.2666 27.0968 13.7518 26.0055L13.2655 25.8838C12.6457 27.2779 12.1052 28.6901 11.6408 30.118C11.583 29.6992 11.4383 29.2531 11.2478 28.8907C10.6875 27.8249 9.49069 27.0254 9.08597 27.2848C9.005 27.3367 8.97093 27.4212 8.94012 27.5218C8.69203 28.3314 8.87886 29.4503 9.53225 30.4783C10.045 31.2851 10.44 31.3984 10.5429 31.424C10.6297 31.4457 10.9651 31.5384 11.2407 31.4189C11.0554 32.0551 10.8839 32.6939 10.7277 33.3357C10.5396 32.868 10.1689 32.3698 9.77693 32.0252C8.87302 31.2307 7.46982 30.9128 7.18453 31.3C7.12749 31.3775 7.12585 31.4686 7.13301 31.5736C7.19053 32.4185 7.76466 33.3964 8.74198 34.1223C9.50907 34.6921 9.91833 34.6564 10.0235 34.6434C10.0855 34.6358 10.2727 34.6172 10.4531 34.5355C10.2856 35.3152 10.1392 36.0987 10.0126 36.8855C9.75951 36.0053 8.8997 34.9072 8.08824 35.2566C6.6483 35.8765 4.95566 34.9243 4.76936 35.3407C4.72089 35.449 4.76102 35.5607 4.80741 35.6819C5.18046 36.6574 6.21078 37.6026 7.62549 38.1045C8.73583 38.4984 9.20558 38.308 9.32496 38.2546C9.40409 38.2193 9.66518 38.11 9.85968 37.9073C9.71986 38.9183 9.61268 39.9345 9.5372 40.9551C9.23699 40.2986 8.39136 39.6071 7.59973 39.2505C6.21111 38.625 4.39491 38.762 4.1932 39.3368C4.15286 39.4518 4.18468 39.5627 4.23226 39.6871C4.6152 40.6883 5.67268 41.6584 7.12476 42.1736C8.26442 42.5779 8.74655 42.3825 8.8691 42.3277C8.95861 42.2877 9.2748 42.1554 9.47642 41.9042C9.4506 42.376 9.43065 42.8486 9.41804 43.3221C9.41444 43.457 9.41234 43.5918 9.40973 43.7267C9.39337 43.7532 9.3791 43.7803 9.3696 43.8086C9.33069 43.9243 9.35716 44.0356 9.40284 44.1572C9.40183 44.2428 9.4013 44.3285 9.40073 44.4141C9.14667 44.1835 8.84361 43.8367 8.47907 43.3425C8.15015 42.8967 7.8378 43.2238 7.63716 43.6035C7.32261 43.5333 7.02257 43.5767 6.78661 43.7975C5.20426 45.2778 3.4295 44.4924 3.40439 44.9338C3.39715 45.0611 3.46526 45.1624 3.55113 45.2722C4.24203 46.1561 5.59836 46.8009 7.2097 46.8689C8.47435 46.9222 8.89673 46.578 9.00251 46.4855C9.03967 46.4529 9.12296 46.3827 9.21315 46.284C9.28557 46.3419 9.35607 46.3945 9.42676 46.4424C9.45457 47.2898 9.50435 48.1361 9.57813 48.981C9.51815 48.9863 9.46078 48.9962 9.41804 49.0006C8.80547 49.0631 8.59907 48.2354 7.6737 47.9331C7.36639 47.8327 6.77435 47.7231 6.46235 47.9331C6.41742 47.9633 6.26412 48.077 6.02626 48.1757C5.88567 48.234 5.77825 48.261 5.73554 48.2727C5.35587 48.3767 5.00422 48.6621 4.76648 48.855C4.31955 49.2177 4.09612 49.399 3.9912 49.7284C3.9582 49.8321 3.86532 50.1237 3.9912 50.4078C4.05068 50.542 4.18872 50.7416 4.71801 50.9415C5.03259 51.0603 5.95013 51.4069 7.04379 51.0386C7.29284 50.9547 7.10274 50.9847 8.06132 50.5048C8.8155 50.1272 9.25658 49.9467 9.32113 49.5829C9.34384 49.4549 9.32095 49.299 9.41804 49.2432C9.472 49.2122 9.53723 49.2273 9.60235 49.2508C9.66581 49.93 9.74506 50.6081 9.8411 51.2848H8.97812C7.83222 51.2848 6.80421 51.9235 6.29537 52.9516L3.06738 59.4732C2.8636 59.8848 2.75586 60.3453 2.75586 60.8048V77.5743C2.75586 79.2277 4.09909 80.5728 5.75014 80.5728H13.2847C14.9358 80.5728 16.279 79.2277 16.279 77.5743V62.1328C16.279 61.7564 16.2094 61.3879 16.072 61.0374L12.9956 53.1878C12.6224 52.2359 11.8143 51.5624 10.8483 51.3539C11.1581 50.9861 11.4685 50.6186 11.7812 50.2522C12.175 50.4424 12.6083 50.5986 13.074 50.7083C14.3062 50.9984 14.7856 50.7397 14.9069 50.6687C15.0227 50.6008 15.5247 50.325 15.6098 49.8649C15.6189 49.8156 15.6224 49.7657 15.6218 49.7155C16.884 50.743 17.5424 51.2494 18.0234 51.0806C18.437 50.9354 18.6731 50.4596 18.8083 50.0327C18.9495 50.0523 19.0992 50.0724 19.2588 50.0938C20.9875 50.3249 21.8586 50.4321 22.1918 50.0221C22.653 49.4546 22.2153 48.3604 22.0946 48.0588C21.8324 47.4034 21.429 47.0045 21.1784 46.7619C20.853 46.4468 19.9256 45.5489 18.4655 45.4291C18.1481 45.403 17.863 45.423 17.5725 45.4839C17.4713 45.3912 17.3645 45.3004 17.2469 45.2141C17.0228 45.0497 16.8014 44.9279 16.5632 44.8327C16.9286 44.4318 17.2951 44.0321 17.6632 43.6341C17.7215 43.6606 17.7768 43.6863 17.8277 43.7099C19.0338 44.2709 19.2988 44.8202 20.4586 45.1094C20.9849 45.2406 21.5806 45.3891 21.7281 45.1658C21.9901 44.7691 20.878 43.1368 19.1594 42.0324C19.2753 41.9095 19.3915 41.7871 19.5076 41.6645C19.6647 41.7305 19.8032 41.7949 19.9212 41.8498C21.1273 42.4107 21.3923 42.96 22.5522 43.2492C23.0783 43.3804 23.6741 43.5289 23.8216 43.3056C24.0554 42.9517 23.1952 41.6136 21.7864 40.5448C22.1734 40.4218 22.6865 40.2854 23.351 40.3029C24.3588 40.3294 25.146 40.6956 25.6134 40.9129C26.8195 41.4739 27.0845 42.0232 28.2444 42.3124C28.7706 42.4436 29.3663 42.5921 29.5138 42.3688C29.9033 41.779 27.2578 38.4563 24.0932 38.2012C23.8476 38.1814 23.6267 38.1831 23.4271 38.1979C23.3996 38.1521 23.3696 38.1051 23.3381 38.0574C24.4088 38.0918 26.4999 37.7853 28.2797 39.0366C28.7929 39.3974 29.7898 40.2462 31.4583 40.9436C31.9916 41.1665 32.2597 41.2761 32.3336 41.1845C32.598 40.8569 30.3998 38.1607 27.3072 36.8324C26.081 36.3058 25.3234 36.256 24.7846 36.3357C24.8676 36.2409 24.9486 36.1431 25.0265 36.0448C26.2307 34.862 27.4501 33.6916 28.6805 32.537C28.6209 32.7214 28.6229 32.8196 28.6879 32.8912ZM13.2341 47.612C11.874 47.171 10.2269 47.4079 9.79747 47.9096C9.73692 47.465 9.6843 47.0197 9.64093 46.5735C10.2606 46.9201 10.9072 47.0129 12.1337 47.1769C12.6561 47.2467 13.099 47.3049 13.4736 47.3413C13.5239 47.4778 13.5776 47.6007 13.6398 47.7183C13.647 47.7319 13.6548 47.7449 13.6621 47.7584L13.6513 47.7708C13.5116 47.7101 13.3717 47.6566 13.2341 47.612ZM9.62034 41.638C9.65913 41.5092 9.65993 41.3719 9.63031 41.2304C9.67263 40.7178 9.72546 40.2068 9.78797 39.6973C9.78637 39.7753 9.81106 39.8533 9.84472 39.9379C10.2228 40.889 11.2446 41.8018 12.6373 42.2753C12.8971 42.3637 13.1199 42.4194 13.3119 42.4534C13.2274 42.6008 13.1627 42.7444 13.1199 42.8773C12.6451 42.4953 12.0339 42.2175 11.3404 42.5122C11.1517 42.5924 11.0397 42.8858 10.9424 43.2366C10.3018 43.2476 9.76648 43.3815 9.51153 43.608C9.51289 43.5135 9.51242 43.4192 9.51494 43.3246C9.52931 42.7855 9.55584 42.248 9.59324 41.7122C9.60345 41.6882 9.61265 41.6636 9.62034 41.638ZM9.51334 44.4114C9.54094 44.468 9.57118 44.5243 9.60259 44.5805C9.57409 44.5595 9.54492 44.5369 9.51497 44.5124C9.51417 44.4788 9.51396 44.4451 9.51334 44.4114ZM10.6071 51.3125C10.5325 51.3027 10.4573 51.2956 10.3813 51.2913C10.2059 50.4195 10.044 49.5482 9.90847 48.6753C10.2649 49.2418 10.8466 49.7604 11.5875 50.1536C11.2587 50.539 10.9327 50.9256 10.6071 51.3125ZM16.3479 44.7555C15.8841 44.6063 15.3398 44.5349 14.5864 44.4473C14.3955 44.1816 14.1988 43.9859 14.0533 43.845C13.9745 43.7687 13.8535 43.6174 13.6968 43.4404C14.1029 43.3099 14.7089 43.0773 15.5652 43.0999C16.3435 43.1204 16.9894 43.3432 17.4588 43.5439C17.087 43.9462 16.717 44.3503 16.3479 44.7555ZM18.9767 41.9182C18.5209 41.6424 18.0266 41.4062 17.5062 41.2403C17.5568 41.2398 17.6063 41.2383 17.6587 41.2397C18.3041 41.2567 18.8583 41.413 19.2967 41.5802C19.19 41.6929 19.0832 41.8053 18.9767 41.9182Z" fill="#CCCCCC"/>
</g>
<defs>
<clipPath id="clip0_1193_1738">
<rect width="104" height="83" fill="white"/>
</clipPath>
</defs>
</svg>
