<svg width="75" height="92" viewBox="0 0 75 92" fill="none" xmlns="http://www.w3.org/2000/svg">
<path d="M51.8652 33.1712L46.372 37.5783L44.7111 37.6995L44.1013 37.7439L33.8593 38.4968L23.2395 37.7179L21.6592 37.6021L19.6451 37.4552L15.4336 33.4148C15.4336 33.4148 18.4147 30.2123 21.0258 28.0509C22.0549 27.1969 23.0271 26.5065 23.7358 26.2348L23.8567 26.1926C24.3024 26.0183 28.6678 25.562 28.9857 25.2028C31.0475 23.0709 28.9857 17.988 28.9857 17.988C28.9857 17.988 38.0808 13.276 36.9821 19.457C35.8834 25.6381 38.9508 24.7233 39.0777 24.7817L42.7805 24.8926L43.4561 25.2034L45.1791 25.9949L49.0665 27.7835C52.1178 29.192 51.8652 33.1712 51.8652 33.1712Z" fill="#ED9DA0"/>
<path d="M31.9757 21.2107C36.4948 21.2107 40.1583 17.5368 40.1583 13.0048C40.1583 8.47275 36.4948 4.79883 31.9757 4.79883C27.4565 4.79883 23.793 8.47275 23.793 13.0048C23.793 17.5368 27.4565 21.2107 31.9757 21.2107Z" fill="#ED9DA0"/>
<path d="M35.8679 2.37272C37.6703 3.00793 38.7014 3.37156 39.646 4.28412C41.2416 5.82582 41.5055 7.88611 41.7497 9.80063C41.9416 11.2982 42.1888 13.2342 41.3132 15.4469C41.0148 16.2017 40.4615 18.7076 37.6908 19.1321C37.1467 19.2156 40.2053 15.7762 40.086 11.8876C40.0123 9.47222 36.3306 6.86285 34.1446 6.39384C33.6194 6.28625 33.0771 6.29369 32.5549 6.41566C32.0328 6.53762 31.5431 6.77124 31.1193 7.10054C29.2819 8.61323 29.3601 14.8684 27.4227 16.1758C26.6258 16.7136 27.157 12.9281 26.5954 13.5414C25.4876 14.7527 26.1981 16.6062 26.3973 17.3138C27.3418 20.6646 28.3306 18.187 29.2519 21.0481C30.2477 24.1373 22.1839 26.7231 21.8867 27.4131C21.3702 28.613 20.6637 33.4388 18.6368 34.4264C16.0641 35.6801 21.4575 34.4087 20.2615 35.8084C19.593 36.5903 19.9547 37.4196 18.7469 39.8535C18.3528 40.6481 18.1544 41.0454 17.981 41.0313C17.1546 40.9647 15.8181 34.3356 17.981 28.1621C18.8885 25.5712 19.7775 23.0333 22.1597 21.0479C23.4199 19.9985 24.4767 19.6209 24.7773 18.3954C25.2071 16.6441 23.4227 15.8973 23.0654 13.135C22.8209 11.2458 22.6491 8.54397 23.3148 6.81209C23.9429 5.17655 24.4882 3.7571 25.9153 2.46995C26.2578 2.16108 29.0251 0.0594975 31.959 0.000298019C33.3096 -0.0269337 34.3021 1.81979 35.8679 2.37168V2.37272Z" fill="#090814"/>
<path d="M44.5469 55.3137C44.5469 55.3137 47.3485 62.6588 48.9415 61.9243C50.5345 61.1898 50.1025 58.0681 50.4064 57.2123C50.7102 56.3566 51.0473 49.8672 51.0473 49.8672C51.0473 49.8672 51.2011 45.2764 51.5048 44.3468C51.7868 43.4929 52.0157 39.1868 52.0541 38.5092V38.4192L51.752 33.0939L50.0417 32.666L46.0758 34.1361L45.5265 37.2817L45.3122 38.51L45.2207 39.0334L44.5469 55.3137Z" fill="#ED9DA0"/>
<path d="M22.6381 55.635C22.6381 55.635 19.8364 62.9801 18.2435 62.2456C16.6505 61.5111 17.0826 58.3894 16.7786 57.5336C16.4746 56.6779 16.1376 50.1885 16.1376 50.1885C16.1376 50.1885 15.9839 45.5977 15.6801 44.6681C15.3981 43.8142 15.1692 39.5081 15.1309 38.8304V38.7405L15.4349 33.4152L17.1452 32.9873L21.1114 34.4563L21.6607 37.6019L21.8749 38.8303L21.9664 39.3536L22.6381 55.635Z" fill="#ED9DA0"/>
<path d="M21.54 62.9506C21.54 62.9506 19.403 65.3066 20.196 65.7344C20.9889 66.1623 26.1177 74.1815 26.1177 74.1815C26.1177 74.1815 42.9638 76.2622 46.1415 73.1403C49.3191 70.0184 49.2543 64.4417 49.2543 64.4417C49.2543 64.4417 46.7012 64.9925 46.4235 64.6933C46.1457 64.394 44.6162 62.9506 44.6162 62.9506C44.6162 62.9506 23.0047 61.6358 21.54 62.9506Z" fill="#090814"/>
<path opacity="0.1" d="M51.8793 39.0143H15.1309V38.9243L15.4349 33.599C15.4349 33.599 18.416 30.3964 21.0271 28.2351L44.0991 27.3175L45.1721 26.1826L49.0594 27.9707C52.1118 29.3767 51.8665 33.3566 51.8665 33.3566C51.8665 33.3566 52.284 37.9676 51.8793 39.0143Z" fill="black"/>
<path d="M51.8793 38.8307H15.1309V38.7407L15.4349 33.4154C15.4349 33.4154 18.416 30.2128 21.0271 28.0515L44.0991 27.1339L45.1721 25.999L49.0594 27.7871C52.1118 29.1931 51.8665 33.173 51.8665 33.173C51.8665 33.173 52.284 37.784 51.8793 38.8307Z" fill="#D6D6E3"/>
<path d="M43.4483 25.1989L44.0618 34.5805L44.7191 37.7023L45.2208 40.0895C45.2208 40.0895 46.5026 58.4526 46.1358 59.3708C45.7691 60.289 46.319 61.0235 46.3959 61.5119C46.4728 62.0003 46.319 63.227 46.3793 63.7779C46.4397 64.3287 46.3793 64.5729 44.9773 64.3765C43.5753 64.1801 41.619 63.8386 41.619 63.8386C41.619 63.8386 36.6751 64.2059 34.9666 63.5944C33.2581 62.9828 30.0227 62.9811 30.0227 62.9811C30.0227 62.9811 25.1391 63.104 23.5534 62.9205C21.9676 62.737 21.1107 64.8799 20.0744 64.2666C19.0381 63.6533 21.2938 57.7184 22.0264 56.0032C22.759 54.2881 21.0504 49.9434 21.0504 49.9434L23.2478 37.7187L23.7367 34.9477V26.2361L23.8575 26.1939C24.3032 26.0196 24.7557 26.1547 25.073 25.7955L25.5679 34.1487L42.7802 34.762V24.8955" fill="#D6D6E3"/>
<path d="M41.5664 86.7419L48.8304 86.9752L47.7885 81.5732L42.2237 82.104L41.5664 86.7419Z" fill="#ED9DA0"/>
<path d="M64.0732 73.9377C63.5843 74.5492 61.6927 75.6509 61.5096 76.0183C61.3264 76.3856 59.0688 77.4873 57.9078 77.671C56.7468 77.8546 53.0865 78.6516 52.4144 79.0795C51.9329 79.3879 48.0673 80.3648 45.5276 80.9067C44.8397 81.0699 44.1435 81.1956 43.442 81.2832C42.3433 81.3437 30.3203 77.2428 30.3203 77.2428L32.6385 74.8556L32.7667 74.8112C33.4223 74.5892 36.4509 73.5625 38.1318 73.074C40.0253 72.5231 42.2226 70.2589 42.2226 70.2589C42.2226 70.2589 45.4564 69.157 45.8848 69.0341C46.3132 68.9111 44.786 64.7499 44.786 64.7499C44.786 64.7499 51.8046 63.7731 54.5514 62.9444C57.2981 62.1156 63.6465 62.4228 64.8056 65.6675C65.9647 68.9123 64.5695 73.3262 64.0732 73.9377Z" fill="#090814"/>
<path d="M32.0901 84.2816C32.0901 84.2816 30.6881 85.7506 29.283 85.6294C27.8779 85.5082 22.9675 85.9968 22.9675 85.9968C22.0775 86.3528 21.244 86.8371 20.4936 87.4346C19.3454 88.3417 16.5879 87.8934 16.5879 87.8934C16.5879 87.8934 17.1977 82.0178 17.0109 81.2827C16.824 80.5476 18.2176 79.2868 18.2176 79.2868L19.8656 78.8663L24.0405 77.7939L30.0228 79.8745L32.0901 84.2816Z" fill="#090814"/>
<path opacity="0.1" d="M45.5276 80.906C44.8397 81.0693 44.1435 81.1949 43.442 81.2825C42.3433 81.3431 30.3203 77.2422 30.3203 77.2422L32.6385 74.8549L32.7667 74.8105C33.133 75.0694 33.4332 75.2917 33.6475 75.4606C34.6565 76.2575 35.6305 75.2164 35.9968 75.2164C36.3631 75.2164 39.5359 77.8482 39.5359 77.8482C39.5359 77.8482 42.4657 78.5222 42.9546 79.1336C43.4435 79.745 45.1519 79.6239 45.4559 80.0512C45.5471 80.1844 45.558 80.5094 45.5276 80.906Z" fill="black"/>
<path d="M22.9674 65.0002C22.9674 65.0002 20.0047 65.171 18.2962 64.4494C16.5876 63.7278 10.9113 62.0622 9.26327 63.232C7.61525 64.4017 3.64729 65.4355 5.4783 70.0887C7.30932 74.742 8.16425 74.8632 8.16425 74.8632C8.73081 75.2893 9.22541 75.804 9.62912 76.3876C10.1784 77.2451 15.3056 79.2026 16.5873 79.2026C17.8691 79.2026 20.1269 79.2027 23.3001 81.4062C26.4734 83.6098 29.3432 83.8553 29.3432 83.8553C29.3432 83.8553 33.3721 85.508 34.6266 85.8752C35.881 86.2424 41.6122 87.8326 42.9562 87.3442C44.3003 86.8558 45.1536 83.7922 45.1536 83.7922C45.1536 83.7922 45.7634 81.0378 45.4576 80.6103C45.1518 80.1827 43.4434 80.3036 42.9562 79.6927C42.4691 79.0817 39.5376 78.4073 39.5376 78.4073C39.5376 78.4073 36.3715 75.7741 36.0054 75.7741C35.6393 75.7741 34.6651 76.8135 33.6561 76.0183C31.6463 74.5253 29.5347 73.1752 27.3369 71.9779C25.0183 70.7533 22.9674 65.0002 22.9674 65.0002Z" fill="#090814"/>
<path opacity="0.1" d="M17.0117 66.7761C17.5392 66.668 18.0845 66.6835 18.6051 66.8214C19.1256 66.9593 19.6074 67.2159 20.0129 67.5711C21.4778 68.7959 26.4071 71.2548 26.4071 71.2548" fill="black"/>
<path opacity="0.1" d="M53.6358 66.6992C53.6358 66.6992 47.1042 67.6908 45.8848 69.0369L53.6358 66.6992Z" fill="black"/>
<path d="M61.1432 86.9753H60.8558C59.8227 86.9385 56.3238 86.8283 55.6499 86.9753C54.8571 87.1589 44.3574 86.9753 44.3574 86.9753L46.4101 86.5474C46.4101 86.5474 45.6483 83.8701 46.1318 83.6478C46.1318 83.6478 43.3852 81.8335 45.4562 80.6086C47.5271 79.3838 49.7593 79.8999 49.7593 79.8999L54.9578 78.1334L55.9557 77.793C55.9557 77.793 61.8146 78.0996 63.4009 82.1395C64.9873 86.1795 61.1432 86.9753 61.1432 86.9753Z" fill="#090814"/>
<path d="M16.5566 33.5076L19.7976 30.5695C19.7976 30.5695 32.3645 29.7433 32.8845 34.0274C32.8845 34.0274 37.3397 28.9482 46.7093 30.0794L50.6736 33.2452L39.7163 38.0673L29.0684 41.7711L21.2258 38.251L16.5566 33.5076Z" fill="#F2F2F2"/>
<path d="M15.123 33.5078L16.5575 50.7085L31.7557 51.4743L31.0959 34.347L31.083 34.0587L15.123 33.5078Z" fill="#EF568F"/>
<path d="M51.3693 33.1406L35.6914 35.4984V52.7756L51.0122 50.5556L51.3693 33.1406Z" fill="#EF568F"/>
<path opacity="0.3" d="M47.672 37.3564L39.2031 38.3004L39.388 41.1943L47.6665 40.2873L47.672 37.3564Z" fill="white"/>
<path d="M17.3816 59.9193L18.244 62.2459C18.244 62.2459 19.5258 63.3477 20.9285 62.7967C22.3313 62.2457 23.5544 61.9722 24.1641 61.436C24.7737 60.8998 25.6289 58.2059 25.6289 58.2059C25.6289 58.2059 26.484 55.2679 27.3373 54.5333C28.1906 53.7988 30.4502 43.679 27.3373 44.6686C24.2244 45.6583 21.844 54.84 21.844 54.84C21.844 54.84 21.2947 55.5121 20.5017 55.5745C19.7088 55.637 18.1213 55.4515 17.8158 56.1254C17.5103 56.7992 16.466 58.5734 17.3816 59.9193Z" fill="#ED9DA0"/>
<path d="M35.6916 35.4962C34.8889 35.6776 34.055 35.6681 33.2567 35.4685C32.4583 35.2689 31.7176 34.8847 31.0938 34.3467L31.7548 51.4721C31.7548 51.4721 33.3111 53.1615 35.6916 52.7758V35.4962Z" fill="#EF568F"/>
<path opacity="0.1" d="M35.6916 35.4962C34.8889 35.6776 34.055 35.6681 33.2567 35.4685C32.4583 35.2689 31.7176 34.8847 31.0938 34.3467L31.7548 51.4721C31.7548 51.4721 33.3111 53.1615 35.6916 52.7758V35.4962Z" fill="black"/>
<path opacity="0.1" d="M36.0586 33.5662C36.0586 33.5662 42.4364 31.6105 44.099 31.886L36.0586 33.5662Z" fill="black"/>
<path opacity="0.1" d="M28.9235 32.7127C28.9235 32.7127 22.7417 31.2436 21.709 31.6604L28.9235 32.7127Z" fill="black"/>
<path opacity="0.1" d="M40.0781 33.8101C40.0781 33.8101 44.3432 32.2413 45.8846 32.9873L40.0781 33.8101Z" fill="black"/>
<path opacity="0.1" d="M37.9316 73.1498C38.5925 72.6521 39.2959 72.2139 40.0338 71.8405C41.1323 71.3097 43.1467 69.9326 43.1467 69.9326" fill="black"/>
<path opacity="0.1" d="M21.7088 54.4102C21.7088 54.4102 19.0334 56.6045 18.2297 56.7974C17.426 56.9902 16.9297 58.7017 16.9297 58.7017" fill="black"/>
<path d="M49.7977 59.5924L48.9444 61.9246C48.9444 61.9246 47.6627 63.0264 46.2584 62.4754C44.8542 61.9244 43.6345 61.6509 43.0229 61.1147C42.4113 60.5785 41.558 57.8847 41.558 57.8847C41.558 57.8847 40.7047 54.9466 39.8497 54.2121C38.9946 53.4775 36.7368 43.3577 39.8497 44.3474C42.9626 45.337 45.343 54.5187 45.343 54.5187C45.343 54.5187 45.8923 55.1908 46.6852 55.2532C47.4782 55.3157 49.0657 55.1302 49.3712 55.8041C49.6767 56.4779 50.7127 58.252 49.7977 59.5924Z" fill="#ED9DA0"/>
<path opacity="0.1" d="M46.0352 54.6113C46.0352 54.6113 48.392 56.5353 49.1023 56.7046C49.8126 56.8739 50.2484 58.3743 50.2484 58.3743" fill="black"/>
</svg>
