<svg width="122" height="92" viewBox="0 0 122 92" fill="none" xmlns="http://www.w3.org/2000/svg">
<g clip-path="url(#clip0_1193_1804)">
<path d="M52.7378 57.301C54.6879 59.9497 51.1532 54.417 59.9204 68.0656L56.4955 69.7607L48.9047 57.7382C48.9047 57.7382 52.5715 57.0753 52.7378 57.301Z" fill="#ED9DA0"/>
<path d="M58.1343 68.7928C58.1343 68.7928 58.1156 66.3598 60.1402 67.2748L64.1887 69.1061C64.1887 69.1061 68.7204 68.1243 67.4072 70.4603C66.0939 72.7962 59.8914 73.5425 59.8914 73.5425C59.8914 73.5425 55.1704 73.9576 55.3186 72.8979C55.4668 71.8382 55.2333 68.3839 55.8866 68.8363C56.5398 69.2887 58.1343 68.7928 58.1343 68.7928Z" fill="#090814"/>
<path d="M43.3712 69.5318C42.1249 72.4061 44.9847 66.8477 37.9517 80.5983L34.9297 78.5711L41.1879 66.5684C41.1879 66.5684 43.4774 69.2868 43.3712 69.5318Z" fill="#ED9DA0"/>
<path d="M109.893 55.5406C109.893 54.6717 109.602 53.9667 109.245 53.9651H11.9722C11.6138 53.9668 11.3248 54.6719 11.3231 55.5406V91.3062C11.3232 91.3869 11.2933 91.4647 11.2393 91.5245C11.1853 91.5842 11.111 91.6217 11.031 91.6294C10.7701 91.6547 10.509 91.6781 10.2478 91.6997C10.2414 91.6997 10.2348 91.7014 10.2284 91.7014C10.0864 91.7144 9.94429 91.724 9.80161 91.7354H9.80038C9.72731 91.5997 9.65506 91.4628 9.58361 91.3249C9.55949 91.2784 9.54689 91.2267 9.54688 91.1743V53.4973C9.54688 53.2573 9.55663 53.0158 9.57264 52.7779C9.59567 52.4507 9.63607 52.125 9.69368 51.8021C9.96655 50.2963 10.5833 49.2768 11.284 49.2734H109.932C110.034 49.2741 110.135 49.2956 110.229 49.3366C110.366 49.3979 110.491 49.4854 110.595 49.5944C110.736 49.7422 110.857 49.9084 110.955 50.0887C111.3 50.6998 111.547 51.6108 111.634 52.6709C111.634 52.6807 111.636 52.6904 111.636 52.7002C111.659 52.9628 111.67 53.2302 111.668 53.4977L111.691 56.9719L111.706 59.0434L111.75 65.5433L111.766 67.8516L111.837 91.5497C111.837 91.6357 111.803 91.7181 111.742 91.7789C111.682 91.8397 111.6 91.8739 111.514 91.8739H110.216C110.131 91.8739 110.048 91.8397 109.988 91.7789C109.927 91.7181 109.893 91.6357 109.893 91.5497L109.893 55.5406Z" fill="#757373"/>
<path d="M83.4617 33.0186H72.9803C72.832 33.0188 72.6899 33.0781 72.5852 33.1835C72.4805 33.2889 72.4218 33.4317 72.4219 33.5805V50.204H84.0215V33.5807C84.0215 33.5069 84.007 33.4338 83.9789 33.3656C83.9508 33.2974 83.9096 33.2355 83.8576 33.1833C83.8056 33.1311 83.7439 33.0897 83.6759 33.0614C83.608 33.0332 83.5352 33.0187 83.4617 33.0187V33.0186ZM78.2563 42.4638C77.9285 42.4622 77.6146 42.3308 77.3828 42.0981C77.151 41.8654 77.0201 41.5502 77.0186 41.2212V39.3039C77.0186 38.9744 77.149 38.6583 77.3811 38.4253C77.6132 38.1922 77.928 38.0613 78.2563 38.0613C78.5845 38.0613 78.8993 38.1922 79.1314 38.4253C79.3636 38.6583 79.494 38.9744 79.494 39.3039V41.2213C79.4924 41.5504 79.3615 41.8656 79.1298 42.0983C78.898 42.331 78.5841 42.4624 78.2563 42.4639V42.4638Z" fill="#2F2E41"/>
<path d="M72.3848 49.6729V51.2766C72.3849 51.3598 72.4179 51.4394 72.4764 51.4982C72.535 51.557 72.6143 51.5901 72.6971 51.5902H83.7441C83.8268 51.5898 83.9061 51.5567 83.9646 51.4979C84.023 51.4392 84.0561 51.3597 84.0565 51.2766V49.6729H72.3848Z" fill="#3F3D56"/>
<path d="M58.9191 9.86961C58.7984 10.1745 58.6126 10.4491 58.3749 10.6741C58.1371 10.8991 57.853 11.0691 57.5427 11.172C57.2325 11.2748 56.9035 11.3082 56.579 11.2696C56.2545 11.231 55.9424 11.1215 55.6646 10.9488L40.8695 21.2966L40.4609 17.1729L55.008 7.71057C55.328 7.2612 55.8011 6.94533 56.3376 6.8228C56.8742 6.70028 57.4368 6.77963 57.9189 7.0458C58.4011 7.31198 58.7692 7.74648 58.9535 8.26697C59.1379 8.78746 59.1256 9.35775 58.9191 9.86976V9.86961Z" fill="#FFB6B6"/>
<path d="M25.794 16.3937C25.794 16.3937 24.192 18.7702 26.7059 20.8734C29.2199 22.9766 39.4091 22.5582 41.0535 22.5401C42.6979 22.522 50.2422 14.6866 50.2422 14.6866L50.1933 10.1611L41.0844 15.5874L25.794 16.3937Z" fill="#EF578F"/>
<path d="M24.8864 32.172L25.0479 35.2518C25.0479 35.2518 24.5713 37.9799 24.9633 38.5687C25.3523 39.1544 36.0337 40.0258 36.0337 40.0258C36.0337 40.0258 35.6984 35.4327 36.303 32.1104L24.8864 32.172Z" fill="#ED9DA0"/>
<path d="M57.6682 63.5299L53.5565 67.1435L45.498 50.5967C37.5068 51.9766 29.9678 52.418 23.447 50.7498C21.2392 50.1924 19.8896 47.9031 20.4326 45.638C20.458 45.5321 20.4874 45.4273 20.5207 45.3236C21.3011 42.933 23.3439 41.2415 24.9536 38.6123L36.71 38.7915L35.3969 43.3403L46.8175 41.8565C49.1142 41.558 51.2118 43.2272 51.5025 45.5843C51.5179 45.7087 51.528 45.8337 51.533 45.9592L57.6682 63.5299Z" fill="#090814"/>
<path d="M29.4768 11.4467C32.1133 11.4467 34.2506 9.30096 34.2506 6.65402C34.2506 4.00709 32.1133 1.86133 29.4768 1.86133C26.8404 1.86133 24.7031 4.00709 24.7031 6.65402C24.7031 9.30096 26.8404 11.4467 29.4768 11.4467Z" fill="#ED9DA0"/>
<path d="M26.6778 13.1768L31.0548 13.6938C31.2394 13.7156 31.4126 13.7946 31.5503 13.92C31.688 14.0453 31.7833 14.2106 31.823 14.3929L32.519 17.5916L36.8583 22.7219C36.8583 22.7219 38.4166 25.6551 37.8322 28.9794C37.4806 30.9813 36.8723 32.929 36.0224 34.774C36.0224 34.774 25.3515 39.1557 24.9616 38.5695C24.5716 37.9834 24.4456 35.3182 24.4456 35.3182L23.0728 19.9825C22.9942 19.1745 23.0947 18.3592 23.367 17.5948C23.6393 16.8304 24.0767 16.136 24.6478 15.5614C24.9942 15.2193 25.3361 14.9798 25.6143 14.9798C26.2428 14.9579 26.1624 13.5383 26.6778 13.1768Z" fill="#EF578F"/>
<path d="M40.936 76.6076L36.763 75.017L42.4904 57.7466C34.7095 55.4562 28.8403 51.767 23.7157 47.388C21.9778 45.9123 20.6734 44.0173 22.154 42.2222C22.2233 42.1382 22.2955 42.0571 22.3708 41.9787C24.1192 40.1766 28.5563 40.5234 31.1539 38.873L36.9629 45.1L36.5988 46.7682L47.505 50.4799C49.6983 51.2263 50.8506 53.6517 50.0788 55.8969C50.0382 56.0154 49.9924 56.1321 49.9416 56.2469L40.936 76.6076Z" fill="#090814"/>
<path d="M29.174 50.669C28.9002 50.4899 28.6688 50.2527 28.4962 49.9741C28.3236 49.6955 28.2139 49.3823 28.1749 49.0566C28.1359 48.7309 28.1685 48.4005 28.2704 48.0888C28.3724 47.7771 28.5411 47.4916 28.7648 47.2525L21.5918 30.6436L25.6987 31.0582L32.0565 47.2477C32.4318 47.6516 32.6464 48.1798 32.6598 48.732C32.6732 49.2842 32.4843 49.8221 32.1289 50.2439C31.7736 50.6656 31.2765 50.9418 30.7319 51.0202C30.1873 51.0985 29.6329 50.9736 29.174 50.669Z" fill="#ED9DA0"/>
<path d="M29.3637 16.7779C29.3637 16.7779 27.3606 14.7307 24.8095 16.7883C22.2584 18.8459 20.6492 28.9556 20.3413 30.5779C20.0333 32.2002 26.1892 41.1755 26.1892 41.1755L30.6171 42.023L27.1231 31.9846L29.3637 16.7779Z" fill="#EF578F"/>
<path d="M100.819 7.07617H56.0147C55.6297 7.07678 55.2607 7.23058 54.9885 7.50386C54.7163 7.77715 54.5631 8.14762 54.5625 8.53411V38.8881C54.5629 39.2747 54.716 39.6453 54.9882 39.9186C55.2605 40.1919 55.6296 40.3457 56.0147 40.346H100.819C101.204 40.3457 101.573 40.1919 101.845 39.9186C102.117 39.6453 102.27 39.2747 102.271 38.8881V8.53411C102.27 8.14762 102.117 7.77715 101.845 7.50386C101.573 7.23058 101.204 7.07678 100.819 7.07617Z" fill="#3F3D56"/>
<path d="M100.444 8.12988H56.3879C56.1819 8.13033 55.9845 8.21274 55.8389 8.35905C55.6934 8.50536 55.6115 8.70363 55.6113 8.91043V38.5128C55.6116 38.7195 55.6935 38.9177 55.839 39.0638C55.9846 39.21 56.182 39.2922 56.3879 39.2924H100.444C100.649 39.2922 100.847 39.21 100.992 39.0638C101.138 38.9177 101.22 38.7195 101.22 38.5128V8.91104C101.22 8.70425 101.138 8.50597 100.993 8.35966C100.847 8.21335 100.65 8.13094 100.444 8.13049V8.12988Z" fill="white"/>
<path d="M91.8614 52.1475H65.6509C65.5791 52.1476 65.5081 52.1316 65.4433 52.1007C65.3784 52.0698 65.3213 52.0247 65.276 51.9688C65.2307 51.9128 65.1984 51.8474 65.1815 51.7774C65.1646 51.7073 65.1635 51.6344 65.1783 51.5638L65.585 49.6245C65.6081 49.516 65.6676 49.4187 65.7534 49.3488C65.8392 49.2789 65.9463 49.2406 66.0568 49.2402H91.4536C91.5641 49.2406 91.6712 49.279 91.757 49.3489C91.8428 49.4188 91.9023 49.516 91.9254 49.6245L92.3322 51.5638C92.3469 51.6344 92.3458 51.7073 92.3289 51.7774C92.312 51.8474 92.2798 51.9128 92.2345 51.9688C92.1892 52.0247 92.132 52.0698 92.0672 52.1007C92.0023 52.1316 91.9314 52.1476 91.8596 52.1475H91.8614Z" fill="#2F2E41"/>
<path d="M66.9771 49.5898H66.3185C66.2774 49.5898 66.2441 49.6233 66.2441 49.6645V50.0014C66.2441 50.0426 66.2774 50.0761 66.3185 50.0761H66.9771C67.0182 50.0761 67.0515 50.0426 67.0515 50.0014V49.6645C67.0515 49.6233 67.0182 49.5898 66.9771 49.5898Z" fill="#3F3D56"/>
<path d="M68.5923 49.5898H67.9338C67.8927 49.5898 67.8594 49.6233 67.8594 49.6645V50.0014C67.8594 50.0426 67.8927 50.0761 67.9338 50.0761H68.5923C68.6334 50.0761 68.6667 50.0426 68.6667 50.0014V49.6645C68.6667 49.6233 68.6334 49.5898 68.5923 49.5898Z" fill="#3F3D56"/>
<path d="M70.2075 49.5898H69.549C69.5079 49.5898 69.4746 49.6233 69.4746 49.6645V50.0014C69.4746 50.0426 69.5079 50.0761 69.549 50.0761H70.2075C70.2486 50.0761 70.2819 50.0426 70.2819 50.0014V49.6645C70.2819 49.6233 70.2486 49.5898 70.2075 49.5898Z" fill="#3F3D56"/>
<path d="M71.8208 49.5898H71.1623C71.1212 49.5898 71.0879 49.6233 71.0879 49.6645V50.0014C71.0879 50.0426 71.1212 50.0761 71.1623 50.0761H71.8208C71.8619 50.0761 71.8952 50.0426 71.8952 50.0014V49.6645C71.8952 49.6233 71.8619 49.5898 71.8208 49.5898Z" fill="#3F3D56"/>
<path d="M73.4361 49.5898H72.7775C72.7364 49.5898 72.7031 49.6233 72.7031 49.6645V50.0014C72.7031 50.0426 72.7364 50.0761 72.7775 50.0761H73.4361C73.4772 50.0761 73.5105 50.0426 73.5105 50.0014V49.6645C73.5105 49.6233 73.4772 49.5898 73.4361 49.5898Z" fill="#3F3D56"/>
<path d="M75.0493 49.5898H74.3908C74.3497 49.5898 74.3164 49.6233 74.3164 49.6645V50.0014C74.3164 50.0426 74.3497 50.0761 74.3908 50.0761H75.0493C75.0904 50.0761 75.1237 50.0426 75.1237 50.0014V49.6645C75.1237 49.6233 75.0904 49.5898 75.0493 49.5898Z" fill="#3F3D56"/>
<path d="M76.6646 49.5898H76.006C75.9649 49.5898 75.9316 49.6233 75.9316 49.6645V50.0014C75.9316 50.0426 75.9649 50.0761 76.006 50.0761H76.6646C76.7057 50.0761 76.739 50.0426 76.739 50.0014V49.6645C76.739 49.6233 76.7057 49.5898 76.6646 49.5898Z" fill="#3F3D56"/>
<path d="M78.2798 49.5898H77.6213C77.5802 49.5898 77.5469 49.6233 77.5469 49.6645V50.0014C77.5469 50.0426 77.5802 50.0761 77.6213 50.0761H78.2798C78.3209 50.0761 78.3542 50.0426 78.3542 50.0014V49.6645C78.3542 49.6233 78.3209 49.5898 78.2798 49.5898Z" fill="#3F3D56"/>
<path d="M79.8931 49.5898H79.2345C79.1935 49.5898 79.1602 49.6233 79.1602 49.6645V50.0014C79.1602 50.0426 79.1935 50.0761 79.2345 50.0761H79.8931C79.9342 50.0761 79.9675 50.0426 79.9675 50.0014V49.6645C79.9675 49.6233 79.9342 49.5898 79.8931 49.5898Z" fill="#3F3D56"/>
<path d="M81.5083 49.5898H80.8498C80.8087 49.5898 80.7754 49.6233 80.7754 49.6645V50.0014C80.7754 50.0426 80.8087 50.0761 80.8498 50.0761H81.5083C81.5494 50.0761 81.5827 50.0426 81.5827 50.0014V49.6645C81.5827 49.6233 81.5494 49.5898 81.5083 49.5898Z" fill="#3F3D56"/>
<path d="M83.1236 49.5898H82.465C82.4239 49.5898 82.3906 49.6233 82.3906 49.6645V50.0014C82.3906 50.0426 82.4239 50.0761 82.465 50.0761H83.1236C83.1647 50.0761 83.198 50.0426 83.198 50.0014V49.6645C83.198 49.6233 83.1647 49.5898 83.1236 49.5898Z" fill="#3F3D56"/>
<path d="M84.7368 49.5898H84.0783C84.0372 49.5898 84.0039 49.6233 84.0039 49.6645V50.0014C84.0039 50.0426 84.0372 50.0761 84.0783 50.0761H84.7368C84.7779 50.0761 84.8112 50.0426 84.8112 50.0014V49.6645C84.8112 49.6233 84.7779 49.5898 84.7368 49.5898Z" fill="#3F3D56"/>
<path d="M86.3521 49.5898H85.6935C85.6524 49.5898 85.6191 49.6233 85.6191 49.6645V50.0014C85.6191 50.0426 85.6524 50.0761 85.6935 50.0761H86.3521C86.3932 50.0761 86.4265 50.0426 86.4265 50.0014V49.6645C86.4265 49.6233 86.3932 49.5898 86.3521 49.5898Z" fill="#3F3D56"/>
<path d="M87.9673 49.5898H87.3088C87.2677 49.5898 87.2344 49.6233 87.2344 49.6645V50.0014C87.2344 50.0426 87.2677 50.0761 87.3088 50.0761H87.9673C88.0084 50.0761 88.0417 50.0426 88.0417 50.0014V49.6645C88.0417 49.6233 88.0084 49.5898 87.9673 49.5898Z" fill="#3F3D56"/>
<path d="M89.5806 49.5898H88.922C88.881 49.5898 88.8477 49.6233 88.8477 49.6645V50.0014C88.8477 50.0426 88.881 50.0761 88.922 50.0761H89.5806C89.6217 50.0761 89.655 50.0426 89.655 50.0014V49.6645C89.655 49.6233 89.6217 49.5898 89.5806 49.5898Z" fill="#3F3D56"/>
<path d="M91.1958 49.5898H90.5373C90.4962 49.5898 90.4629 49.6233 90.4629 49.6645V50.0014C90.4629 50.0426 90.4962 50.0761 90.5373 50.0761H91.1958C91.2369 50.0761 91.2702 50.0426 91.2702 50.0014V49.6645C91.2702 49.6233 91.2369 49.5898 91.1958 49.5898Z" fill="#3F3D56"/>
<path d="M66.9595 50.4004H66.301C66.2599 50.4004 66.2266 50.4338 66.2266 50.4751V50.8119C66.2266 50.8532 66.2599 50.8866 66.301 50.8866H66.9595C67.0006 50.8866 67.0339 50.8532 67.0339 50.8119V50.4751C67.0339 50.4338 67.0006 50.4004 66.9595 50.4004Z" fill="#3F3D56"/>
<path d="M68.5728 50.4004H67.9142C67.8732 50.4004 67.8398 50.4338 67.8398 50.4751V50.8119C67.8398 50.8532 67.8732 50.8866 67.9142 50.8866H68.5728C68.6139 50.8866 68.6472 50.8532 68.6472 50.8119V50.4751C68.6472 50.4338 68.6139 50.4004 68.5728 50.4004Z" fill="#3F3D56"/>
<path d="M70.188 50.4004H69.5295C69.4884 50.4004 69.4551 50.4338 69.4551 50.4751V50.8119C69.4551 50.8532 69.4884 50.8866 69.5295 50.8866H70.188C70.2291 50.8866 70.2624 50.8532 70.2624 50.8119V50.4751C70.2624 50.4338 70.2291 50.4004 70.188 50.4004Z" fill="#3F3D56"/>
<path d="M71.8013 50.4004H71.1428C71.1017 50.4004 71.0684 50.4338 71.0684 50.4751V50.8119C71.0684 50.8532 71.1017 50.8866 71.1428 50.8866H71.8013C71.8424 50.8866 71.8757 50.8532 71.8757 50.8119V50.4751C71.8757 50.4338 71.8424 50.4004 71.8013 50.4004Z" fill="#3F3D56"/>
<path d="M73.4165 50.4004H72.758C72.7169 50.4004 72.6836 50.4338 72.6836 50.4751V50.8119C72.6836 50.8532 72.7169 50.8866 72.758 50.8866H73.4165C73.4576 50.8866 73.4909 50.8532 73.4909 50.8119V50.4751C73.4909 50.4338 73.4576 50.4004 73.4165 50.4004Z" fill="#3F3D56"/>
<path d="M75.0318 50.4004H74.3732C74.3321 50.4004 74.2988 50.4338 74.2988 50.4751V50.8119C74.2988 50.8532 74.3321 50.8866 74.3732 50.8866H75.0318C75.0729 50.8866 75.1062 50.8532 75.1062 50.8119V50.4751C75.1062 50.4338 75.0729 50.4004 75.0318 50.4004Z" fill="#3F3D56"/>
<path d="M76.645 50.4004H75.9865C75.9454 50.4004 75.9121 50.4338 75.9121 50.4751V50.8119C75.9121 50.8532 75.9454 50.8866 75.9865 50.8866H76.645C76.6861 50.8866 76.7194 50.8532 76.7194 50.8119V50.4751C76.7194 50.4338 76.6861 50.4004 76.645 50.4004Z" fill="#3F3D56"/>
<path d="M78.2603 50.4004H77.6017C77.5607 50.4004 77.5273 50.4338 77.5273 50.4751V50.8119C77.5273 50.8532 77.5607 50.8866 77.6017 50.8866H78.2603C78.3014 50.8866 78.3347 50.8532 78.3347 50.8119V50.4751C78.3347 50.4338 78.3014 50.4004 78.2603 50.4004Z" fill="#3F3D56"/>
<path d="M79.8755 50.4004H79.217C79.1759 50.4004 79.1426 50.4338 79.1426 50.4751V50.8119C79.1426 50.8532 79.1759 50.8866 79.217 50.8866H79.8755C79.9166 50.8866 79.9499 50.8532 79.9499 50.8119V50.4751C79.9499 50.4338 79.9166 50.4004 79.8755 50.4004Z" fill="#3F3D56"/>
<path d="M81.4888 50.4004H80.8303C80.7892 50.4004 80.7559 50.4338 80.7559 50.4751V50.8119C80.7559 50.8532 80.7892 50.8866 80.8303 50.8866H81.4888C81.5299 50.8866 81.5632 50.8532 81.5632 50.8119V50.4751C81.5632 50.4338 81.5299 50.4004 81.4888 50.4004Z" fill="#3F3D56"/>
<path d="M83.104 50.4004H82.4455C82.4044 50.4004 82.3711 50.4338 82.3711 50.4751V50.8119C82.3711 50.8532 82.4044 50.8866 82.4455 50.8866H83.104C83.1451 50.8866 83.1784 50.8532 83.1784 50.8119V50.4751C83.1784 50.4338 83.1451 50.4004 83.104 50.4004Z" fill="#3F3D56"/>
<path d="M84.7173 50.4004H84.0588C84.0177 50.4004 83.9844 50.4338 83.9844 50.4751V50.8119C83.9844 50.8532 84.0177 50.8866 84.0588 50.8866H84.7173C84.7584 50.8866 84.7917 50.8532 84.7917 50.8119V50.4751C84.7917 50.4338 84.7584 50.4004 84.7173 50.4004Z" fill="#3F3D56"/>
<path d="M86.3325 50.4004H85.674C85.6329 50.4004 85.5996 50.4338 85.5996 50.4751V50.8119C85.5996 50.8532 85.6329 50.8866 85.674 50.8866H86.3325C86.3736 50.8866 86.4069 50.8532 86.4069 50.8119V50.4751C86.4069 50.4338 86.3736 50.4004 86.3325 50.4004Z" fill="#3F3D56"/>
<path d="M87.9478 50.4004H87.2892C87.2482 50.4004 87.2148 50.4338 87.2148 50.4751V50.8119C87.2148 50.8532 87.2482 50.8866 87.2892 50.8866H87.9478C87.9889 50.8866 88.0222 50.8532 88.0222 50.8119V50.4751C88.0222 50.4338 87.9889 50.4004 87.9478 50.4004Z" fill="#3F3D56"/>
<path d="M89.5611 50.4004H88.9025C88.8614 50.4004 88.8281 50.4338 88.8281 50.4751V50.8119C88.8281 50.8532 88.8614 50.8866 88.9025 50.8866H89.5611C89.6022 50.8866 89.6355 50.8532 89.6355 50.8119V50.4751C89.6355 50.4338 89.6022 50.4004 89.5611 50.4004Z" fill="#3F3D56"/>
<path d="M91.1763 50.4004H90.5178C90.4767 50.4004 90.4434 50.4338 90.4434 50.4751V50.8119C90.4434 50.8532 90.4767 50.8866 90.5178 50.8866H91.1763C91.2174 50.8866 91.2507 50.8532 91.2507 50.8119V50.4751C91.2507 50.4338 91.2174 50.4004 91.1763 50.4004Z" fill="#3F3D56"/>
<path d="M80.3583 51.373H74.049C74.0079 51.373 73.9746 51.4065 73.9746 51.4477V51.7846C73.9746 51.8258 74.0079 51.8593 74.049 51.8593H80.3583C80.3994 51.8593 80.4327 51.8258 80.4327 51.7846V51.4477C80.4327 51.4065 80.3994 51.373 80.3583 51.373Z" fill="#3F3D56"/>
<path d="M121.478 91.9503L0.52227 92.0002C0.23385 92.0002 0 91.9137 0 91.8072C0 91.7007 0.23385 91.6142 0.52227 91.6142L121.478 91.5645C121.766 91.5645 122 91.6509 122 91.7574C122 91.864 121.766 91.9503 121.478 91.9503Z" fill="#F2F2F2"/>
<path d="M101.22 8.91052V38.5123C101.219 38.719 101.138 38.9171 100.992 39.0633C100.846 39.2094 100.649 39.2917 100.443 39.2919H84.9083C83.1897 37.6918 81.7798 35.7872 80.7492 33.6737C80.6814 33.5376 80.6168 33.3998 80.5554 33.2604C79.6164 31.2146 79.0478 29.0172 78.8763 26.7712C78.865 26.6335 78.8553 26.4957 78.8489 26.3563C78.8278 25.9997 78.8184 25.6382 78.8184 25.2752C78.8153 22.8603 79.2695 20.4669 80.1568 18.2224C80.2102 18.083 80.2666 17.9452 80.3245 17.8075C82.1103 13.5952 85.337 10.1625 89.4224 8.12891H100.443C100.649 8.12935 100.847 8.21176 100.992 8.35807C101.138 8.50438 101.22 8.70266 101.22 8.90945V8.91052Z" fill="#EF578F"/>
<path d="M98.2283 12.2071H57.0057C56.9623 12.2071 56.9206 12.1898 56.8898 12.1589C56.8591 12.1281 56.8418 12.0862 56.8418 12.0425C56.8418 11.9989 56.8591 11.957 56.8898 11.9261C56.9206 11.8953 56.9623 11.8779 57.0057 11.8779H98.2283C98.2718 11.8779 98.3135 11.8953 98.3442 11.9261C98.375 11.957 98.3923 11.9989 98.3923 12.0425C98.3923 12.0862 98.375 12.1281 98.3442 12.1589C98.3135 12.1898 98.2718 12.2071 98.2283 12.2071Z" fill="#CACACA"/>
<path d="M59.8123 11.0386C60.3428 11.0386 60.7729 10.5971 60.7729 10.0525C60.7729 9.50789 60.3428 9.06641 59.8123 9.06641C59.2817 9.06641 58.8516 9.50789 58.8516 10.0525C58.8516 10.5971 59.2817 11.0386 59.8123 11.0386Z" fill="#090814"/>
<path d="M63.1306 11.0386C63.6612 11.0386 64.0913 10.5971 64.0913 10.0525C64.0913 9.50789 63.6612 9.06641 63.1306 9.06641C62.6 9.06641 62.1699 9.50789 62.1699 10.0525C62.1699 10.5971 62.6 11.0386 63.1306 11.0386Z" fill="#090814"/>
<path d="M66.4509 11.0386C66.9815 11.0386 67.4116 10.5971 67.4116 10.0525C67.4116 9.50789 66.9815 9.06641 66.4509 9.06641C65.9203 9.06641 65.4902 9.50789 65.4902 10.0525C65.4902 10.5971 65.9203 11.0386 66.4509 11.0386Z" fill="#090814"/>
<path d="M96.2309 9.31055H93.8738C93.8265 9.31055 93.7811 9.32943 93.7476 9.36304C93.7141 9.39665 93.6953 9.44223 93.6953 9.48977C93.6953 9.5373 93.7141 9.58288 93.7476 9.61649C93.7811 9.6501 93.8265 9.66899 93.8738 9.66899H96.2313C96.2787 9.66899 96.3241 9.6501 96.3576 9.61649C96.391 9.58288 96.4098 9.5373 96.4098 9.48977C96.4098 9.44223 96.391 9.39665 96.3576 9.36304C96.3241 9.32943 96.2787 9.31055 96.2313 9.31055H96.2309Z" fill="#090814"/>
<path d="M96.2309 9.9834H93.8738C93.8265 9.9834 93.7811 10.0023 93.7476 10.0359C93.7141 10.0695 93.6953 10.1151 93.6953 10.1626C93.6953 10.2101 93.7141 10.2557 93.7476 10.2893C93.7811 10.323 93.8265 10.3418 93.8738 10.3418H96.2313C96.2787 10.3418 96.3241 10.323 96.3576 10.2893C96.391 10.2557 96.4098 10.2101 96.4098 10.1626C96.4098 10.1151 96.391 10.0695 96.3576 10.0359C96.3241 10.0023 96.2787 9.9834 96.2313 9.9834H96.2309Z" fill="#090814"/>
<path d="M96.2309 10.6553H93.8738C93.8265 10.6553 93.7811 10.6742 93.7476 10.7078C93.7141 10.7414 93.6953 10.787 93.6953 10.8345C93.6953 10.882 93.7141 10.9276 93.7476 10.9612C93.7811 10.9948 93.8265 11.0137 93.8738 11.0137H96.2313C96.2787 11.0137 96.3241 10.9948 96.3576 10.9612C96.391 10.9276 96.4098 10.882 96.4098 10.8345C96.4098 10.787 96.391 10.7414 96.3576 10.7078C96.3241 10.6742 96.2787 10.6553 96.2313 10.6553H96.2309Z" fill="#090814"/>
<path d="M69.3614 21.8232H64.1321C63.7668 21.8232 63.4707 22.1206 63.4707 22.4873V22.5658C63.4707 22.9326 63.7668 23.2299 64.1321 23.2299H69.3614C69.7267 23.2299 70.0228 22.9326 70.0228 22.5658V22.4873C70.0228 22.1206 69.7267 21.8232 69.3614 21.8232Z" fill="#EF578F"/>
<path d="M72.6882 24.6367H60.804C60.4387 24.6367 60.1426 24.934 60.1426 25.3008V25.3793C60.1426 25.7461 60.4387 26.0434 60.804 26.0434H72.6882C73.0535 26.0434 73.3497 25.7461 73.3497 25.3793V25.3008C73.3497 24.934 73.0535 24.6367 72.6882 24.6367Z" fill="#757373"/>
<path d="M72.6882 27.4492H60.804C60.4387 27.4492 60.1426 27.7465 60.1426 28.1133V28.1918C60.1426 28.5586 60.4387 28.8559 60.804 28.8559H72.6882C73.0535 28.8559 73.3497 28.5586 73.3497 28.1918V28.1133C73.3497 27.7465 73.0535 27.4492 72.6882 27.4492Z" fill="#757373"/>
<path d="M61.2201 37.5949C61.2211 38.1743 61.1183 38.7492 60.9166 39.2921H56.3879C56.182 39.2918 55.9846 39.2096 55.839 39.0634C55.6935 38.9173 55.6116 38.7191 55.6113 38.5124V32.7936C55.8644 32.7527 56.1203 32.7322 56.3766 32.7324C57.0127 32.7324 57.6425 32.8582 58.2302 33.1026C58.8179 33.347 59.3519 33.7052 59.8016 34.1568C60.2514 34.6084 60.6082 35.1445 60.8516 35.7345C61.0949 36.3245 61.2202 36.9569 61.2201 37.5955V37.5949Z" fill="#EF578F"/>
<path opacity="0.2" d="M101.261 18.2236V17.8087H94.3328V12.999H93.9212V17.8084H85.9808V12.999H85.5692V17.8084H80.3252C80.2672 17.9461 80.2106 18.0839 80.1576 18.2233H85.5692V26.3572H78.8496C78.856 26.4966 78.8658 26.6344 78.877 26.7721H85.5692V33.2613H80.556C80.617 33.4007 80.6816 33.5385 80.7498 33.6746H85.5691V39.129H85.9807V33.6741H93.9209V39.1286H94.3325V33.6741H101.26V33.2609H94.3328V26.7717H101.261V26.3567H94.3328V18.2236H101.261ZM93.9211 33.261H85.9808V26.7718H93.9211V33.261ZM93.9211 26.3575H85.9808V18.2236H93.9211V26.3575Z" fill="black"/>
<path d="M95.6828 36.2204C95.5944 36.2246 95.5069 36.2013 95.4321 36.1538C95.3573 36.1063 95.2989 36.0368 95.2648 35.9548C95.2307 35.8729 95.2225 35.7824 95.2413 35.6956C95.2602 35.6088 95.3051 35.5299 95.3701 35.4696L95.3997 35.3516L95.388 35.3233C95.299 35.1121 95.1498 34.9321 94.9592 34.8058C94.7686 34.6795 94.5451 34.6126 94.3167 34.6134C94.0884 34.6143 93.8653 34.6829 93.6757 34.8106C93.486 34.9383 93.3382 35.1194 93.2507 35.3312C92.9012 36.1765 92.4562 37.0232 92.3466 37.9168C92.2984 38.3119 92.3187 38.7123 92.4068 39.1004C91.5858 37.3023 91.1595 35.3481 91.1568 33.3701C91.1566 32.8737 91.1841 32.3777 91.2391 31.8844C91.2845 31.4801 91.3476 31.0786 91.4283 30.68C91.8684 28.5171 92.8131 26.4899 94.1851 24.7648C94.8491 24.4011 95.3861 23.8417 95.7237 23.1621C95.846 22.9178 95.9325 22.657 95.9804 22.3878C95.9055 22.3976 95.8293 22.4031 95.7544 22.4088L95.6833 22.4125H95.6744C95.592 22.4164 95.5103 22.3962 95.4391 22.3544C95.3679 22.3127 95.3103 22.2511 95.2732 22.1771C95.2361 22.1032 95.2211 22.02 95.2301 21.9377C95.2391 21.8554 95.2716 21.7775 95.3238 21.7133L95.4209 21.5935C95.47 21.5323 95.5204 21.4711 95.5695 21.4099C95.575 21.404 95.58 21.3978 95.5848 21.3913C95.6413 21.3211 95.6977 21.2521 95.7543 21.1818C95.6512 21.0211 95.5125 20.8865 95.3491 20.7885C94.7829 20.4556 94.002 20.6861 93.5931 21.2002C93.1843 21.7143 93.1053 22.4354 93.248 23.0778C93.3881 23.6243 93.6198 24.143 93.9332 24.6115C93.9027 24.6509 93.8706 24.6891 93.8399 24.7285C93.2787 25.453 92.7896 26.2309 92.3795 27.0512C92.4793 26.1322 92.3602 25.2026 92.0323 24.3389C91.7 23.5339 91.0769 22.856 90.5283 22.1601C89.8693 21.3241 88.518 21.689 88.402 22.7486C88.4009 22.7588 88.3998 22.769 88.3987 22.7792C88.48 22.8253 88.5598 22.8743 88.638 22.9261C88.736 22.9919 88.812 23.0858 88.8559 23.1957C88.8999 23.3055 88.9097 23.4261 88.8842 23.5417C88.8587 23.6573 88.799 23.7624 88.713 23.8434C88.6269 23.9243 88.5185 23.9773 88.402 23.9953L88.3901 23.9971C88.4192 24.292 88.4705 24.5842 88.5436 24.8712C88.7556 25.6725 89.1302 26.4212 89.6438 27.0704C90.1575 27.7195 90.7992 28.2552 91.5288 28.6437C91.5766 28.6683 91.6233 28.6929 91.6711 28.7164C91.2592 29.8884 91.0007 31.1093 90.9024 32.3483C90.8467 33.0793 90.85 33.8136 90.9123 34.544L90.9086 34.5181C90.7514 33.7059 90.3199 32.973 89.6868 32.4432C88.7465 31.6677 87.4182 31.3821 86.4038 30.7589C86.296 30.6894 86.1706 30.6523 86.0425 30.652C85.9144 30.6516 85.7888 30.6881 85.6807 30.7571C85.5725 30.8261 85.4863 30.9247 85.4321 31.0412C85.3779 31.1578 85.3581 31.2875 85.375 31.4151C85.3763 31.4241 85.3777 31.4332 85.3791 31.4423C85.5303 31.5041 85.6776 31.5754 85.82 31.6556C85.9013 31.7018 85.981 31.7507 86.0593 31.8026C86.1573 31.8683 86.2333 31.9623 86.2772 32.0722C86.3211 32.182 86.331 32.3026 86.3055 32.4182C86.28 32.5338 86.2203 32.6389 86.1343 32.7198C86.0482 32.8008 85.9398 32.8537 85.8233 32.8718L85.8114 32.8736L85.7869 32.8773C86.0452 33.4966 86.4079 34.0667 86.8589 34.5625C87.416 35.1627 88.0894 35.6423 88.8377 35.972C89.5861 36.3016 90.3936 36.4744 91.2108 36.4796H91.212C91.4338 37.4473 91.7552 38.3894 92.171 39.2904H95.597C95.6093 39.2522 95.6203 39.2127 95.6314 39.1746C95.3143 39.1946 94.9959 39.1756 94.6834 39.118C94.9375 38.8048 95.1918 38.4892 95.4456 38.1761C95.451 38.1702 95.4561 38.164 95.4608 38.1576C95.5898 37.9973 95.72 37.8383 95.8488 37.6781C95.8555 37.1868 95.7991 36.6967 95.6811 36.2198L95.6828 36.2204ZM91.7596 28.4721L91.7614 28.4696L91.7596 28.4745V28.4721ZM91.0009 35.3403L90.9714 35.2737C90.9727 35.2256 90.9727 35.1776 90.9714 35.1281C90.9714 35.1145 90.969 35.1011 90.969 35.0874C90.9801 35.1725 90.9899 35.2576 91.0022 35.3426L91.0009 35.3403Z" fill="#090814"/>
<path d="M26.9469 13.4238L26.9088 13.0493L27.4192 10.4713L31.1188 10.707L31.2216 14.0722L26.9469 13.4238Z" fill="#ED9DA0"/>
<path d="M34.2016 6.30909C33.8649 4.65541 33.7035 3.80829 32.479 2.63839C32.1886 2.67971 32.5553 4.19183 30.9546 6.29823C28.6271 9.36026 28.8592 6.55274 28.1709 7.49598C28.0215 7.70076 27.9892 8.43952 28.0383 8.69373C28.2323 9.69803 29.3798 8.71745 28.1709 12.154C27.9909 12.4212 27.7788 12.3563 27.5081 12.353C27.4872 12.353 27.6244 12.3265 27.1103 12.2198C26.8651 12.169 26.5216 12.1088 26.11 12.0392C21.3279 11.2303 19.6393 5.17241 23.3356 2.02069C24.1766 1.30366 25.0019 0.760188 25.7186 0.508271C27.8774 -0.249469 32.7948 0.243193 33.7385 2.70497C34.1832 3.85049 34.342 5.08781 34.2012 6.30909H34.2016Z" fill="#090814" stroke="black" stroke-width="2"/>
<path d="M24.352 16.0329C26.2356 16.0329 27.7626 14.4998 27.7626 12.6087C27.7626 10.7176 26.2356 9.18457 24.352 9.18457C22.4684 9.18457 20.9414 10.7176 20.9414 12.6087C20.9414 14.4998 22.4684 16.0329 24.352 16.0329Z" fill="#090814" stroke="black" stroke-width="2"/>
<path d="M28.8685 11.7498C29.3754 11.7498 29.8616 11.5476 30.22 11.1878C30.5784 10.8279 30.7798 10.3399 30.7798 9.83095C30.7798 9.32204 30.5784 8.83398 30.22 8.47412C29.8616 8.11427 29.3754 7.91211 28.8685 7.91211V8.16816C29.2785 8.1685 29.6737 8.32159 29.9776 8.59778C30.2816 8.87397 30.4726 9.25359 30.5136 9.66309C30.5547 10.0726 30.4429 10.4828 30.1999 10.8143C29.9569 11.1457 29.6 11.3749 29.1983 11.4572C28.7967 11.5396 28.3789 11.4693 28.0259 11.2601C27.6729 11.0509 27.4098 10.7175 27.2876 10.3246C27.1655 9.93178 27.1929 9.50737 27.3646 9.13364C27.5363 8.75991 27.84 8.46348 28.217 8.30177L28.1166 8.06638C27.7117 8.24028 27.3791 8.54917 27.175 8.94083C26.9708 9.3325 26.9076 9.78292 26.9959 10.216C27.0843 10.649 27.3189 11.0382 27.6601 11.3177C28.0013 11.5971 28.4281 11.7498 28.8684 11.7498H28.8685Z" fill="#EF578F"/>
<path d="M36.5033 79.4633C36.5033 79.4633 38.4933 78.2903 38.7046 80.4013L39.1274 84.6244C39.1274 84.6244 42.0905 87.9087 39.547 87.9331C37.0035 87.9576 33.4387 83.1781 33.4387 83.1781C33.4387 83.1781 30.8509 79.4669 31.7917 79.0853C32.7324 78.7037 35.4584 76.8664 35.3977 77.6226C35.337 78.3788 36.5033 79.4633 36.5033 79.4633Z" fill="#090814"/>
</g>
<defs>
<clipPath id="clip0_1193_1804">
<rect width="122" height="92" fill="white"/>
</clipPath>
</defs>
</svg>
