<svg width="85" height="93" viewBox="0 0 85 93" fill="none" xmlns="http://www.w3.org/2000/svg">
<g clip-path="url(#clip0_1193_1707)">
<path opacity="0.1" d="M62.2927 70.8529C48.7399 76.986 31.2854 76.5513 31.2854 76.5513H12.3965V72.9619C20.0937 70.8236 30.7365 69.5018 42.5007 69.5018C49.1222 69.4788 55.7365 69.9304 62.2927 70.8529Z" fill="black"/>
<path opacity="0.1" d="M85 81.2505C85 87.7419 65.9695 92.9996 42.5 92.9996C19.0305 92.9996 0 87.7419 0 81.2505C0 78.0139 4.73408 75.0821 12.3963 72.9616V76.5509H31.2847C31.2847 76.5509 48.7391 76.9856 62.292 70.8525C75.7916 72.8147 85 76.733 85 81.2505Z" fill="black"/>
<path d="M47.9269 8.0957H29.8438V26.1243H47.9269V8.0957Z" fill="#090814"/>
<path d="M36.5704 20.8454C36.5704 20.8454 38.0671 26.059 35.4474 26.4314C33.8219 26.6836 32.2815 27.3223 30.957 28.2935L35.8216 34.6243H44.8026L50.4155 29.0383C50.4155 29.0383 42.9316 23.4523 44.4283 20.1006C45.9251 16.7489 36.5704 20.8454 36.5704 20.8454Z" fill="#ED9DA0"/>
<path d="M38.8145 85.6432L47.4213 88.6222L53.4078 88.9947L53.0336 83.7811L40.6856 80.1465L38.8145 85.6432Z" fill="#ED9DA0"/>
<path d="M49.8537 84.5253C49.8537 84.5253 49.8537 89.7389 50.6021 89.7389C51.3506 89.7389 61.4537 88.6213 64.4473 89.7389C67.441 90.8564 71.9312 86.7604 69.686 84.5253C67.4408 82.2901 63.7787 78.9393 61.4935 79.684C59.2084 80.4287 49.8535 82.2909 49.8535 82.2909L49.8537 84.5253Z" fill="#2F2E41"/>
<path d="M22.35 79.6846C22.35 79.6846 17.8597 88.6223 20.8533 89.367C23.8469 90.1117 27.2147 88.9946 27.5889 88.6222C27.9631 88.2497 33.2018 86.7601 33.9502 87.5046C34.6987 88.249 34.6985 84.5253 34.6985 84.5253L22.35 79.6846Z" fill="#2F2E41"/>
<path d="M26.0917 67.3955C26.0917 67.3955 18.9819 77.0781 24.2207 79.6848C29.4596 82.2915 54.5306 82.2917 56.4016 79.6848C58.2726 77.078 59.021 68.8851 56.4016 68.1402C53.7822 67.3954 26.0917 67.3955 26.0917 67.3955Z" fill="#2F2E41"/>
<path opacity="0.2" d="M26.0917 67.3955C26.0917 67.3955 18.9819 77.0781 24.2207 79.6848C29.4596 82.2915 54.5306 82.2917 56.4016 79.6848C58.2726 77.078 59.021 68.8851 56.4016 68.1402C53.7822 67.3954 26.0917 67.3955 26.0917 67.3955Z" fill="black"/>
<path d="M39.5636 23.4509C44.3168 23.4509 48.1701 19.6161 48.1701 14.8856C48.1701 10.1551 44.3168 6.32031 39.5636 6.32031C34.8103 6.32031 30.957 10.1551 30.957 14.8856C30.957 19.6161 34.8103 23.4509 39.5636 23.4509Z" fill="#ED9DA0"/>
<path d="M26.0918 28.2933L33.5757 26.8037C33.5757 26.8037 35.4466 32.7622 41.4338 31.645C47.4209 30.5279 48.9177 26.8037 48.9177 26.8037C48.9177 26.8037 53.408 28.6657 53.7823 28.6657C54.1565 28.6657 59.0211 30.5277 59.0211 31.645C59.0211 32.7623 53.4082 43.9343 53.4082 43.9343L54.1565 64.0442L26.4659 63.2993L28.337 43.562L26.0918 28.2933Z" fill="#EF578F"/>
<path d="M21.9758 37.9756C21.9758 37.9756 19.7306 57.713 21.2274 59.2026C22.7241 60.6922 28.7113 64.7886 28.7113 64.7886V60.3198L25.7178 54.7338L28.7114 41.7002L21.9758 37.9756Z" fill="#ED9DA0"/>
<path d="M60.7057 37.417C60.7057 37.417 59.3961 57.7131 59.3961 58.4578C59.3961 59.2025 56.0282 61.8095 54.9061 61.8095C53.784 61.8095 53.0352 59.9475 53.0352 59.9475L55.6546 56.9682L53.7832 41.6996L60.7057 37.417Z" fill="#ED9DA0"/>
<path d="M57.1504 65.9054C57.1504 65.9054 73.9892 56.5953 74.3633 65.9054C74.7374 75.2156 65.7568 78.939 65.7568 78.939C65.7568 78.939 42.5565 85.8622 41.6204 83.3318C40.6842 80.8015 38.8139 76.7046 40.3107 76.3323C41.8076 75.96 43.6785 75.2147 44.4269 75.9599C45.1754 76.705 54.5309 70.3743 54.5309 70.3743L57.1504 65.9054Z" fill="#2F2E41"/>
<path opacity="0.2" d="M65.0092 64.7881C65.0092 64.7881 61.6415 66.2777 60.519 67.3945C59.3964 68.5114 54.5312 70.3742 54.5312 70.3742" stroke="black" stroke-width="2" stroke-miterlimit="10"/>
<path d="M28.3383 29.0378L26.0924 28.293C26.0924 28.293 17.8601 36.8583 20.4795 39.0927C23.0989 41.3271 24.5956 42.072 25.3441 42.8167C26.0925 43.5614 29.8345 43.9343 29.8345 43.9343L28.3383 29.0378Z" fill="#EF578F"/>
<path d="M55.6529 30.9004L59.0206 31.6453C59.0206 31.6453 61.64 37.2313 62.3883 37.9761C63.1366 38.721 61.2654 38.3485 60.1431 39.8381C59.0209 41.3277 57.8972 43.9346 55.6528 43.9346C53.4083 43.9346 50.4141 40.2105 50.4141 40.2105L55.6529 30.9004Z" fill="#EF578F"/>
<path d="M26.8404 69.2576C26.8404 69.2576 12.621 59.2027 7.75629 66.6508C2.89153 74.0988 28.7113 84.1538 32.4533 85.6434C36.1952 87.1329 39.5631 88.6226 39.5631 88.6226C39.5631 88.6226 42.9308 80.4298 42.9308 78.9402C42.9308 77.4506 40.3114 77.4506 39.5631 77.4506C38.8148 77.4506 35.4469 76.7058 34.6985 75.5886C33.95 74.4715 26.8404 69.2576 26.8404 69.2576Z" fill="#2F2E41"/>
<path opacity="0.2" d="M18.9824 66.6504C18.9824 66.6504 22.7244 69.6297 26.0922 70.3744C29.4601 71.1191 30.5826 72.9813 30.5826 72.9813" stroke="black" stroke-width="2" stroke-miterlimit="10"/>
<path d="M24.2585 52.6482L24.5574 68.416C24.5673 68.9368 24.7836 69.4326 25.1592 69.7953C25.5349 70.1581 26.0393 70.3584 26.5627 70.3526L56.0467 70.0229C56.5492 70.0173 57.0308 69.8221 57.3942 69.4768C57.7576 69.1314 57.9758 68.6617 58.0046 68.1624L58.8996 52.7243C58.9152 52.4559 58.8755 52.1873 58.783 51.9347C58.6905 51.6822 58.5472 51.4511 58.3618 51.2557C58.1764 51.0602 57.9529 50.9045 57.7049 50.7981C57.4569 50.6916 57.1896 50.6367 56.9196 50.6367H26.2416C25.9779 50.6367 25.7169 50.6889 25.4738 50.7904C25.2307 50.892 25.0104 51.0407 24.8257 51.2279C24.641 51.4152 24.4957 51.6372 24.3983 51.881C24.3008 52.1248 24.2532 52.3855 24.2582 52.6478L24.2585 52.6482Z" fill="#090814"/>
<path d="M23.5796 26.6995C24.3826 24.9359 25.4618 23.281 25.976 21.4136C26.5923 19.1756 26.3523 16.8075 26.2789 14.488C26.1618 12.4366 26.3375 10.3791 26.8006 8.37672C27.271 6.36487 28.3268 4.53562 29.8359 3.11757C33.7574 -0.365795 37.6058 -0.616595 42.3942 0.833791C44.2819 1.40564 46.2927 2.49433 46.7609 4.40206C46.8315 4.69016 46.863 4.98683 46.9421 5.2729C47.3342 6.69324 48.7943 7.59209 49.3211 8.9686C50.0024 10.749 48.9518 12.6852 48.8144 14.5855C48.654 16.8041 49.75 18.9 50.8301 20.8473C51.4718 22.0049 52.1399 23.2381 52.0761 24.5588C52.023 25.2814 51.8023 25.9819 51.4314 26.6053C50.7432 27.7352 49.7779 28.6727 48.6261 29.3298C47.4743 29.9869 46.1736 30.3421 44.8462 30.3621C43.9833 30.4309 43.1204 30.2282 42.3796 29.7826C41.211 28.9818 40.8687 27.3693 41.1121 25.9782C41.3555 24.587 42.065 23.3289 42.6211 22.0303C42.7917 21.6316 42.9456 21.2263 43.0878 20.8168C44.8117 19.8591 46.1402 18.326 46.8386 16.4881C47.537 14.6502 47.5604 12.6259 46.9046 10.7725C46.2488 8.91916 44.9561 7.35602 43.2547 6.35914C41.5533 5.36225 39.5527 4.99575 37.6061 5.32434C35.6596 5.65293 33.8923 6.65549 32.6164 8.15496C31.3405 9.65444 30.638 11.5544 30.633 13.5193C30.628 15.4842 31.3208 17.3876 32.5891 18.8935C33.8574 20.3994 35.6195 21.4108 37.5644 21.7492C37.9836 23.851 37.7931 26.0281 37.0152 28.0261C36.3077 29.6517 35.4193 31.1932 34.3667 32.6218C33.9363 33.3542 33.3625 33.9932 32.6795 34.5009C32.2293 34.7662 31.746 34.9716 31.2421 35.1118C29.1285 35.7883 30.2312 36.3326 28.0322 36.0284C25.8332 35.7242 23.6553 34.4041 22.906 32.3241C22.2491 30.4999 22.7766 28.463 23.5796 26.6995Z" fill="#090814"/>
<path d="M38.5478 13.5403C43.5923 13.5403 47.6816 11.2341 47.6816 8.38931C47.6816 5.54447 43.5923 3.23828 38.5478 3.23828C33.5034 3.23828 29.4141 5.54447 29.4141 8.38931C29.4141 11.2341 33.5034 13.5403 38.5478 13.5403Z" fill="#090814"/>
</g>
<defs>
<clipPath id="clip0_1193_1707">
<rect width="85" height="93" fill="white"/>
</clipPath>
</defs>
</svg>
