<svg width="316" height="132" viewBox="0 0 316 132" fill="none" xmlns="http://www.w3.org/2000/svg">
<g filter="url(#filter0_d_1193_1688)">
<rect x="3.7998" y="3.7998" width="304" height="120" rx="8" fill="#FAF2E8"/>
<path d="M31.7898 34.0158C31.5018 33.4878 31.1058 33.0858 30.6018 32.8098C30.0978 32.5338 29.5098 32.3958 28.8378 32.3958C28.0938 32.3958 27.4338 32.5638 26.8578 32.8998C26.2818 33.2358 25.8318 33.7158 25.5078 34.3398C25.1838 34.9638 25.0218 35.6838 25.0218 36.4998C25.0218 37.3398 25.1838 38.0718 25.5078 38.6958C25.8438 39.3198 26.3058 39.7998 26.8938 40.1358C27.4818 40.4718 28.1658 40.6398 28.9458 40.6398C29.9058 40.6398 30.6918 40.3878 31.3038 39.8838C31.9158 39.3678 32.3178 38.6538 32.5098 37.7418H28.1898V35.8158H34.9938V38.0118C34.8258 38.8878 34.4658 39.6978 33.9138 40.4418C33.3618 41.1858 32.6478 41.7858 31.7718 42.2418C30.9078 42.6858 29.9358 42.9078 28.8558 42.9078C27.6438 42.9078 26.5458 42.6378 25.5618 42.0978C24.5898 41.5458 23.8218 40.7838 23.2578 39.8118C22.7058 38.8398 22.4298 37.7358 22.4298 36.4998C22.4298 35.2638 22.7058 34.1598 23.2578 33.1878C23.8218 32.2038 24.5898 31.4418 25.5618 30.9018C26.5458 30.3498 27.6378 30.0738 28.8378 30.0738C30.2538 30.0738 31.4838 30.4218 32.5278 31.1178C33.5718 31.8018 34.2918 32.7678 34.6878 34.0158H31.7898ZM41.2862 42.9618C40.3262 42.9618 39.4622 42.7518 38.6942 42.3318C37.9262 41.8998 37.3202 41.2938 36.8762 40.5138C36.4442 39.7338 36.2282 38.8338 36.2282 37.8138C36.2282 36.7938 36.4502 35.8938 36.8942 35.1138C37.3502 34.3338 37.9682 33.7338 38.7482 33.3138C39.5282 32.8818 40.3982 32.6658 41.3582 32.6658C42.3182 32.6658 43.1882 32.8818 43.9682 33.3138C44.7482 33.7338 45.3602 34.3338 45.8042 35.1138C46.2602 35.8938 46.4882 36.7938 46.4882 37.8138C46.4882 38.8338 46.2542 39.7338 45.7862 40.5138C45.3302 41.2938 44.7062 41.8998 43.9142 42.3318C43.1342 42.7518 42.2582 42.9618 41.2862 42.9618ZM41.2862 40.7658C41.7422 40.7658 42.1682 40.6578 42.5642 40.4418C42.9722 40.2138 43.2962 39.8778 43.5362 39.4338C43.7762 38.9898 43.8962 38.4498 43.8962 37.8138C43.8962 36.8658 43.6442 36.1398 43.1402 35.6358C42.6482 35.1198 42.0422 34.8618 41.3222 34.8618C40.6022 34.8618 39.9962 35.1198 39.5042 35.6358C39.0242 36.1398 38.7842 36.8658 38.7842 37.8138C38.7842 38.7618 39.0182 39.4938 39.4862 40.0098C39.9662 40.5138 40.5662 40.7658 41.2862 40.7658ZM47.6887 37.7778C47.6887 36.7698 47.8867 35.8758 48.2827 35.0958C48.6907 34.3158 49.2367 33.7158 49.9207 33.2958C50.6167 32.8758 51.3907 32.6658 52.2427 32.6658C52.9867 32.6658 53.6347 32.8158 54.1867 33.1158C54.7507 33.4158 55.2007 33.7938 55.5367 34.2498V32.8278H58.0747V42.7998H55.5367V41.3418C55.2127 41.8098 54.7627 42.1998 54.1867 42.5118C53.6227 42.8118 52.9687 42.9618 52.2247 42.9618C51.3847 42.9618 50.6167 42.7458 49.9207 42.3138C49.2367 41.8818 48.6907 41.2758 48.2827 40.4958C47.8867 39.7038 47.6887 38.7978 47.6887 37.7778ZM55.5367 37.8138C55.5367 37.2018 55.4167 36.6798 55.1767 36.2478C54.9367 35.8038 54.6127 35.4678 54.2047 35.2398C53.7967 34.9998 53.3587 34.8798 52.8907 34.8798C52.4227 34.8798 51.9907 34.9938 51.5947 35.2218C51.1987 35.4498 50.8747 35.7858 50.6227 36.2298C50.3827 36.6618 50.2627 37.1778 50.2627 37.7778C50.2627 38.3778 50.3827 38.9058 50.6227 39.3618C50.8747 39.8058 51.1987 40.1478 51.5947 40.3878C52.0027 40.6278 52.4347 40.7478 52.8907 40.7478C53.3587 40.7478 53.7967 40.6338 54.2047 40.4058C54.6127 40.1658 54.9367 39.8298 55.1767 39.3978C55.4167 38.9538 55.5367 38.4258 55.5367 37.8138ZM63.0559 29.4798V42.7998H60.5359V29.4798H63.0559ZM69.3617 42.9618C68.5457 42.9618 67.8137 42.8178 67.1657 42.5298C66.5177 42.2298 66.0017 41.8278 65.6177 41.3238C65.2457 40.8198 65.0417 40.2618 65.0057 39.6498H67.5437C67.5917 40.0338 67.7777 40.3518 68.1017 40.6038C68.4377 40.8558 68.8517 40.9818 69.3437 40.9818C69.8237 40.9818 70.1957 40.8858 70.4597 40.6938C70.7357 40.5018 70.8737 40.2558 70.8737 39.9558C70.8737 39.6318 70.7057 39.3918 70.3697 39.2358C70.0457 39.0678 69.5237 38.8878 68.8037 38.6958C68.0597 38.5158 67.4477 38.3298 66.9677 38.1378C66.4997 37.9458 66.0917 37.6518 65.7437 37.2558C65.4077 36.8598 65.2397 36.3258 65.2397 35.6538C65.2397 35.1018 65.3957 34.5978 65.7077 34.1418C66.0317 33.6858 66.4877 33.3258 67.0757 33.0618C67.6757 32.7978 68.3777 32.6658 69.1817 32.6658C70.3697 32.6658 71.3177 32.9658 72.0257 33.5658C72.7337 34.1538 73.1237 34.9518 73.1957 35.9598H70.7837C70.7477 35.5638 70.5797 35.2518 70.2797 35.0238C69.9917 34.7838 69.6017 34.6638 69.1097 34.6638C68.6537 34.6638 68.2997 34.7478 68.0477 34.9158C67.8077 35.0838 67.6877 35.3178 67.6877 35.6178C67.6877 35.9538 67.8557 36.2118 68.1917 36.3918C68.5277 36.5598 69.0497 36.7338 69.7577 36.9138C70.4777 37.0938 71.0717 37.2798 71.5397 37.4718C72.0077 37.6638 72.4097 37.9638 72.7457 38.3718C73.0937 38.7678 73.2737 39.2958 73.2857 39.9558C73.2857 40.5318 73.1237 41.0478 72.7997 41.5038C72.4877 41.9598 72.0317 42.3198 71.4317 42.5838C70.8437 42.8358 70.1537 42.9618 69.3617 42.9618ZM78.1083 40.1538L76.0023 45.2118H74.3823L75.5523 40.1538H78.1083ZM91.9177 40.4058H86.9137L86.0857 42.7998H83.4397L87.9577 30.2178H90.8917L95.4097 42.7998H92.7457L91.9177 40.4058ZM91.2337 38.3898L89.4157 33.1338L87.5977 38.3898H91.2337ZM96.4504 37.8138C96.4504 36.7818 96.6604 35.8818 97.0804 35.1138C97.5004 34.3338 98.0824 33.7338 98.8264 33.3138C99.5704 32.8818 100.422 32.6658 101.382 32.6658C102.618 32.6658 103.638 32.9778 104.442 33.6018C105.258 34.2138 105.804 35.0778 106.08 36.1938H103.362C103.218 35.7618 102.972 35.4258 102.624 35.1858C102.288 34.9338 101.868 34.8078 101.364 34.8078C100.644 34.8078 100.074 35.0718 99.6544 35.5998C99.2344 36.1158 99.0244 36.8538 99.0244 37.8138C99.0244 38.7618 99.2344 39.4998 99.6544 40.0278C100.074 40.5438 100.644 40.8018 101.364 40.8018C102.384 40.8018 103.05 40.3458 103.362 39.4338H106.08C105.804 40.5138 105.258 41.3718 104.442 42.0078C103.626 42.6438 102.606 42.9618 101.382 42.9618C100.422 42.9618 99.5704 42.7518 98.8264 42.3318C98.0824 41.8998 97.5004 41.2998 97.0804 40.5318C96.6604 39.7518 96.4504 38.8458 96.4504 37.8138ZM113.543 32.6838C114.299 32.6838 114.971 32.8518 115.559 33.1878C116.147 33.5118 116.603 33.9978 116.927 34.6458C117.263 35.2818 117.431 36.0498 117.431 36.9498V42.7998H114.911V37.2918C114.911 36.4998 114.713 35.8938 114.317 35.4738C113.921 35.0418 113.381 34.8258 112.697 34.8258C112.001 34.8258 111.449 35.0418 111.041 35.4738C110.645 35.8938 110.447 36.4998 110.447 37.2918V42.7998H107.927V29.4798H110.447V34.0698C110.771 33.6378 111.203 33.3018 111.743 33.0618C112.283 32.8098 112.883 32.6838 113.543 32.6838ZM121.105 31.6398C120.661 31.6398 120.289 31.5018 119.989 31.2258C119.701 30.9378 119.557 30.5838 119.557 30.1638C119.557 29.7438 119.701 29.3958 119.989 29.1198C120.289 28.8318 120.661 28.6878 121.105 28.6878C121.549 28.6878 121.915 28.8318 122.203 29.1198C122.503 29.3958 122.653 29.7438 122.653 30.1638C122.653 30.5838 122.503 30.9378 122.203 31.2258C121.915 31.5018 121.549 31.6398 121.105 31.6398ZM122.347 32.8278V42.7998H119.827V32.8278H122.347ZM134.107 37.5978C134.107 37.9578 134.083 38.2818 134.035 38.5698H126.745C126.805 39.2898 127.057 39.8538 127.501 40.2618C127.945 40.6698 128.491 40.8738 129.139 40.8738C130.075 40.8738 130.741 40.4718 131.137 39.6678H133.855C133.567 40.6278 133.015 41.4198 132.199 42.0438C131.383 42.6558 130.381 42.9618 129.193 42.9618C128.233 42.9618 127.369 42.7518 126.601 42.3318C125.845 41.8998 125.251 41.2938 124.819 40.5138C124.399 39.7338 124.189 38.8338 124.189 37.8138C124.189 36.7818 124.399 35.8758 124.819 35.0958C125.239 34.3158 125.827 33.7158 126.583 33.2958C127.339 32.8758 128.209 32.6658 129.193 32.6658C130.141 32.6658 130.987 32.8698 131.731 33.2778C132.487 33.6858 133.069 34.2678 133.477 35.0238C133.897 35.7678 134.107 36.6258 134.107 37.5978ZM131.497 36.8778C131.485 36.2298 131.251 35.7138 130.795 35.3298C130.339 34.9338 129.781 34.7358 129.121 34.7358C128.497 34.7358 127.969 34.9278 127.537 35.3118C127.117 35.6838 126.859 36.2058 126.763 36.8778H131.497ZM140.104 40.4778L142.624 32.8278H145.306L141.616 42.7998H138.556L134.884 32.8278H137.584L140.104 40.4778ZM155.991 37.5978C155.991 37.9578 155.967 38.2818 155.919 38.5698H148.629C148.689 39.2898 148.941 39.8538 149.385 40.2618C149.829 40.6698 150.375 40.8738 151.023 40.8738C151.959 40.8738 152.625 40.4718 153.021 39.6678H155.739C155.451 40.6278 154.899 41.4198 154.083 42.0438C153.267 42.6558 152.265 42.9618 151.077 42.9618C150.117 42.9618 149.253 42.7518 148.485 42.3318C147.729 41.8998 147.135 41.2938 146.703 40.5138C146.283 39.7338 146.073 38.8338 146.073 37.8138C146.073 36.7818 146.283 35.8758 146.703 35.0958C147.123 34.3158 147.711 33.7158 148.467 33.2958C149.223 32.8758 150.093 32.6658 151.077 32.6658C152.025 32.6658 152.871 32.8698 153.615 33.2778C154.371 33.6858 154.953 34.2678 155.361 35.0238C155.781 35.7678 155.991 36.6258 155.991 37.5978ZM153.381 36.8778C153.369 36.2298 153.135 35.7138 152.679 35.3298C152.223 34.9338 151.665 34.7358 151.005 34.7358C150.381 34.7358 149.853 34.9278 149.421 35.3118C149.001 35.6838 148.743 36.2058 148.647 36.8778H153.381ZM170.215 32.6838C171.439 32.6838 172.423 33.0618 173.167 33.8178C173.923 34.5618 174.301 35.6058 174.301 36.9498V42.7998H171.781V37.2918C171.781 36.5118 171.583 35.9178 171.187 35.5098C170.791 35.0898 170.251 34.8798 169.567 34.8798C168.883 34.8798 168.337 35.0898 167.929 35.5098C167.533 35.9178 167.335 36.5118 167.335 37.2918V42.7998H164.815V37.2918C164.815 36.5118 164.617 35.9178 164.221 35.5098C163.825 35.0898 163.285 34.8798 162.601 34.8798C161.905 34.8798 161.353 35.0898 160.945 35.5098C160.549 35.9178 160.351 36.5118 160.351 37.2918V42.7998H157.831V32.8278H160.351V34.0338C160.675 33.6138 161.089 33.2838 161.593 33.0438C162.109 32.8038 162.673 32.6838 163.285 32.6838C164.065 32.6838 164.761 32.8518 165.373 33.1878C165.985 33.5118 166.459 33.9798 166.795 34.5918C167.119 34.0158 167.587 33.5538 168.199 33.2058C168.823 32.8578 169.495 32.6838 170.215 32.6838ZM185.962 37.5978C185.962 37.9578 185.938 38.2818 185.89 38.5698H178.6C178.66 39.2898 178.912 39.8538 179.356 40.2618C179.8 40.6698 180.346 40.8738 180.994 40.8738C181.93 40.8738 182.596 40.4718 182.992 39.6678H185.71C185.422 40.6278 184.87 41.4198 184.054 42.0438C183.238 42.6558 182.236 42.9618 181.048 42.9618C180.088 42.9618 179.224 42.7518 178.456 42.3318C177.7 41.8998 177.106 41.2938 176.674 40.5138C176.254 39.7338 176.044 38.8338 176.044 37.8138C176.044 36.7818 176.254 35.8758 176.674 35.0958C177.094 34.3158 177.682 33.7158 178.438 33.2958C179.194 32.8758 180.064 32.6658 181.048 32.6658C181.996 32.6658 182.842 32.8698 183.586 33.2778C184.342 33.6858 184.924 34.2678 185.332 35.0238C185.752 35.7678 185.962 36.6258 185.962 37.5978ZM183.352 36.8778C183.34 36.2298 183.106 35.7138 182.65 35.3298C182.194 34.9338 181.636 34.7358 180.976 34.7358C180.352 34.7358 179.824 34.9278 179.392 35.3118C178.972 35.6838 178.714 36.2058 178.618 36.8778H183.352ZM193.328 32.6838C194.516 32.6838 195.476 33.0618 196.208 33.8178C196.94 34.5618 197.306 35.6058 197.306 36.9498V42.7998H194.786V37.2918C194.786 36.4998 194.588 35.8938 194.192 35.4738C193.796 35.0418 193.256 34.8258 192.572 34.8258C191.876 34.8258 191.324 35.0418 190.916 35.4738C190.52 35.8938 190.322 36.4998 190.322 37.2918V42.7998H187.802V32.8278H190.322V34.0698C190.658 33.6378 191.084 33.3018 191.6 33.0618C192.128 32.8098 192.704 32.6838 193.328 32.6838ZM202.636 34.8978V39.7218C202.636 40.0578 202.714 40.3038 202.87 40.4598C203.038 40.6038 203.314 40.6758 203.698 40.6758H204.868V42.7998H203.284C201.16 42.7998 200.098 41.7678 200.098 39.7038V34.8978H198.91V32.8278H200.098V30.3618H202.636V32.8278H204.868V34.8978H202.636ZM210.496 42.9618C209.68 42.9618 208.948 42.8178 208.3 42.5298C207.652 42.2298 207.136 41.8278 206.752 41.3238C206.38 40.8198 206.176 40.2618 206.14 39.6498H208.678C208.726 40.0338 208.912 40.3518 209.236 40.6038C209.572 40.8558 209.986 40.9818 210.478 40.9818C210.958 40.9818 211.33 40.8858 211.594 40.6938C211.87 40.5018 212.008 40.2558 212.008 39.9558C212.008 39.6318 211.84 39.3918 211.504 39.2358C211.18 39.0678 210.658 38.8878 209.938 38.6958C209.194 38.5158 208.582 38.3298 208.102 38.1378C207.634 37.9458 207.226 37.6518 206.878 37.2558C206.542 36.8598 206.374 36.3258 206.374 35.6538C206.374 35.1018 206.53 34.5978 206.842 34.1418C207.166 33.6858 207.622 33.3258 208.21 33.0618C208.81 32.7978 209.512 32.6658 210.316 32.6658C211.504 32.6658 212.452 32.9658 213.16 33.5658C213.868 34.1538 214.258 34.9518 214.33 35.9598H211.918C211.882 35.5638 211.714 35.2518 211.414 35.0238C211.126 34.7838 210.736 34.6638 210.244 34.6638C209.788 34.6638 209.434 34.7478 209.182 34.9158C208.942 35.0838 208.822 35.3178 208.822 35.6178C208.822 35.9538 208.99 36.2118 209.326 36.3918C209.662 36.5598 210.184 36.7338 210.892 36.9138C211.612 37.0938 212.206 37.2798 212.674 37.4718C213.142 37.6638 213.544 37.9638 213.88 38.3718C214.228 38.7678 214.408 39.2958 214.42 39.9558C214.42 40.5318 214.258 41.0478 213.934 41.5038C213.622 41.9598 213.166 42.3198 212.566 42.5838C211.978 42.8358 211.288 42.9618 210.496 42.9618Z" fill="#575656"/>
<rect x="21.7998" y="64.7998" width="268" height="8" rx="4" fill="#FFC57A"/>
<rect x="21.7998" y="80.7998" width="190" height="8" rx="4" fill="#A6ACB1"/>
<rect x="21.7998" y="96.7998" width="212" height="8" rx="4" fill="#A6ACB1"/>
</g>
<defs>
<filter id="filter0_d_1193_1688" x="-0.000195503" y="-0.000195503" width="315.6" height="131.6" filterUnits="userSpaceOnUse" color-interpolation-filters="sRGB">
<feFlood flood-opacity="0" result="BackgroundImageFix"/>
<feColorMatrix in="SourceAlpha" type="matrix" values="0 0 0 0 0 0 0 0 0 0 0 0 0 0 0 0 0 0 127 0" result="hardAlpha"/>
<feOffset dx="2" dy="2"/>
<feGaussianBlur stdDeviation="2.9"/>
<feComposite in2="hardAlpha" operator="out"/>
<feColorMatrix type="matrix" values="0 0 0 0 0 0 0 0 0 0 0 0 0 0 0 0 0 0 0.25 0"/>
<feBlend mode="normal" in2="BackgroundImageFix" result="effect1_dropShadow_1193_1688"/>
<feBlend mode="normal" in="SourceGraphic" in2="effect1_dropShadow_1193_1688" result="shape"/>
</filter>
</defs>
</svg>
