<svg width="1198" height="1024" viewBox="0 0 1198 1024" fill="none" xmlns="http://www.w3.org/2000/svg">
<line x1="0.5" y1="2.18557e-08" x2="0.499955" y2="1023" stroke="#454545"/>
<line x1="133.5" y1="2.18557e-08" x2="133.5" y2="1023" stroke="#454545"/>
<line x1="267.5" y1="2.18557e-08" x2="267.5" y2="1023" stroke="#454545"/>
<line x1="399.5" y1="2.18557e-08" x2="399.5" y2="1023" stroke="#454545"/>
<line x1="533.5" y1="2.18557e-08" x2="533.5" y2="1023" stroke="#454545"/>
<line x1="664.5" y1="2.18557e-08" x2="664.5" y2="1023" stroke="#454545"/>
<line x1="798.5" y1="2.18557e-08" x2="798.5" y2="1023" stroke="#454545"/>
<line x1="931.5" y1="2.18557e-08" x2="931.5" y2="1023" stroke="#454545"/>
<line x1="1064.5" y1="2.18557e-08" x2="1064.5" y2="1023" stroke="#454545"/>
<line x1="1197.5" y1="2.18557e-08" x2="1197.5" y2="1023" stroke="#454545"/>
<line x1="1197" y1="174.702" y2="174.702" stroke="#454545"/>
<line x1="1197" y1="316.169" y2="316.169" stroke="#454545"/>
<line x1="1197" y1="457.635" y2="457.635" stroke="#454545"/>
<line x1="1197" y1="599.102" y2="599.102" stroke="#454545"/>
<line x1="1197" y1="740.567" y2="740.567" stroke="#454545"/>
<line x1="1197" y1="882.033" y2="882.033" stroke="#454545"/>
<line x1="1197" y1="1023.5" y2="1023.5" stroke="#454545"/>
</svg>
