<svg width="56" height="142" viewBox="0 0 56 142" fill="none" xmlns="http://www.w3.org/2000/svg">
<path d="M25.1646 60H20.391C20.1758 60 19.9634 59.9544 19.7695 59.8665C19.5756 59.7787 19.4052 59.6509 19.2709 59.4926C19.1366 59.3343 19.0419 59.1495 18.9938 58.952C18.9456 58.7545 18.9453 58.5494 18.9929 58.3518L19.877 54.6778C8.53327 52.9411 0 41.272 0 27.45C0 12.3141 10.2181 0 22.7778 0C35.3375 0 45.5556 12.3141 45.5556 27.45C45.5556 41.272 37.0223 52.9411 25.6786 54.6778L26.5627 58.3518C26.6102 58.5494 26.6099 58.7545 26.5618 58.952C26.5136 59.1495 26.4189 59.3343 26.2846 59.4926C26.1503 59.6509 25.9799 59.7787 25.786 59.8665C25.5921 59.9544 25.3797 60 25.1646 60Z" fill="#EF578F"/>
<path d="M19.0564 54.2217C17.9001 53.9463 16.693 53.9272 15.5277 54.1659C14.3625 54.4046 13.2701 54.8948 12.3343 55.5987C11.4135 56.3198 10.6817 57.2358 10.1972 58.2738C9.71267 59.3119 9.48873 60.4434 9.54315 61.5785C9.77365 66.4843 14.9528 69.1211 18.563 71.7596C22.8293 74.8775 26.834 78.4749 29.7248 82.8304C32.5875 87.1436 34.3829 92.2547 33.967 97.4025C33.6072 101.855 31.4914 106.269 27.8628 109.15C27.4055 109.511 26.9254 109.844 26.4251 110.149C25.9153 110.461 26.3884 111.241 26.9018 110.927C30.8775 108.49 33.5075 104.427 34.5036 100.062C35.6118 95.2066 34.6245 90.1516 32.4464 85.6939C30.1836 81.0631 26.6244 77.1261 22.625 73.7743C20.6412 72.1117 18.534 70.6025 16.3999 69.122C14.5233 67.8201 12.5563 66.4182 11.39 64.4579C10.8141 63.4969 10.5053 62.4114 10.4928 61.3046C10.4803 60.1977 10.7646 59.1062 11.3186 58.1335C11.897 57.155 12.7363 56.3398 13.7516 55.7705C14.7669 55.2011 15.922 54.8979 17.0998 54.8917C17.675 54.8864 18.2484 54.9532 18.8053 55.0903C19.3946 55.2339 19.6459 54.3654 19.0564 54.2217Z" fill="white"/>
<path d="M32.6795 118.889C32.5036 118.814 32.3481 118.701 32.2246 118.561C32.1012 118.42 32.0129 118.255 31.9665 118.078L31.0952 114.782C21.2665 117.731 9.41879 111.608 3.47781 100.484C-3.02793 88.3013 -0.1398 74.4749 9.91602 69.6622C19.9718 64.8496 33.4456 70.8453 39.9514 83.0276C45.8924 94.1524 44.0759 106.814 35.7402 112.559L38.0272 115.177C38.1502 115.318 38.2381 115.483 38.2845 115.66C38.3308 115.838 38.3344 116.023 38.2949 116.202C38.2554 116.381 38.1739 116.549 38.0565 116.694C37.939 116.839 37.7885 116.957 37.6162 117.039L33.7943 118.868C33.6222 118.951 33.4325 118.996 33.2394 119C33.0463 119.003 32.8549 118.966 32.6795 118.889Z" fill="#FFC57B"/>
<path d="M36.1692 112.623C37.0092 111.957 38.0044 111.476 39.0785 111.218C40.1526 110.96 41.2769 110.93 42.3652 111.133C43.4487 111.354 44.4609 111.805 45.3213 112.448C46.1818 113.091 46.8667 113.91 47.3218 114.839C49.2926 118.851 46.1486 122.957 44.3099 126.459C42.137 130.597 40.393 135.018 39.9092 139.616C39.4302 144.169 40.1904 148.949 42.8053 152.906C45.0669 156.328 48.7719 159.042 53.0589 159.947C53.5981 160.06 54.1444 160.141 54.6945 160.192C55.256 160.245 55.2065 161.051 54.6409 160.997C50.2611 160.581 46.2837 158.346 43.5316 155.24C40.4697 151.784 39.0625 147.36 38.9086 142.956C38.7488 138.38 39.9728 133.859 41.8206 129.636C42.7372 127.542 43.824 125.522 44.9458 123.515C45.9322 121.751 46.9498 119.871 47.0555 117.854C47.1106 116.863 46.889 115.876 46.4115 114.986C45.934 114.096 45.2165 113.333 44.3271 112.768C43.4149 112.209 42.3577 111.88 41.2625 111.817C40.1674 111.753 39.0734 111.956 38.0913 112.405C37.6108 112.622 37.1635 112.897 36.7608 113.221C36.3342 113.563 35.7423 112.965 36.1692 112.623Z" fill="white"/>
</svg>
