<svg width="78" height="78" viewBox="0 0 78 78" fill="none" xmlns="http://www.w3.org/2000/svg">
<path d="M29.3598 19.3796L21.0951 27.6249C19.5773 29.1394 18.1831 30.5271 17.0813 31.7849C16.3358 32.614 15.6627 33.5056 15.0696 34.4499L14.9916 34.3686L14.6828 34.0631C13.243 32.6722 11.5538 31.5651 9.7038 30.8001L9.30405 30.6376L8.0723 30.1501C7.68871 29.9989 7.34881 29.7545 7.0833 29.439C6.81778 29.1236 6.63501 28.7469 6.55148 28.3432C6.46795 27.9394 6.48629 27.5211 6.60485 27.1262C6.72341 26.7313 6.93844 26.3721 7.23055 26.0811C10.8706 22.4476 15.2418 18.0894 17.3543 17.2151C19.1891 16.4487 21.1966 16.1916 23.1653 16.4709C24.9398 16.7341 26.6168 17.6474 29.3598 19.3796ZM43.4746 62.7671C44.1408 63.4431 44.5796 63.9209 44.9826 64.4311C45.5091 65.1049 45.9792 65.8178 46.3931 66.5696C46.8546 67.4146 47.2153 68.3149 47.9336 70.1186C48.0745 70.4597 48.2975 70.7608 48.5827 70.9951C48.8679 71.2293 49.2065 71.3896 49.5685 71.4616C49.9305 71.5336 50.3047 71.5152 50.6579 71.4079C51.0111 71.3006 51.3323 71.1078 51.5931 70.8466L51.8661 70.5769C55.5061 66.9466 59.8773 62.5884 60.7548 60.4856C61.5256 58.6589 61.7829 56.6564 61.4991 54.6941C61.2358 52.9229 60.3226 51.2491 58.5838 48.5126L50.2898 56.7806C48.7363 58.3309 47.3128 59.7511 46.0226 60.8626C45.2523 61.5321 44.4073 62.1951 43.4746 62.7671Z" fill="white"/>
<path fill-rule="evenodd" clip-rule="evenodd" d="M46.9535 53.2253L65.9562 34.2778C68.6927 31.551 70.061 30.186 70.7792 28.4538C71.4975 26.7215 71.5007 24.7878 71.5007 20.93V19.0873C71.5007 13.1528 71.5007 10.1855 69.6515 8.34275C67.8022 6.5 64.8285 6.5 58.8777 6.5H57.0252C53.1577 6.5 51.224 6.5 49.4852 7.21825C47.7432 7.9365 46.375 9.3015 43.6352 12.0282L24.6357 30.9757C21.4377 34.1608 19.4552 36.14 18.6882 38.0477C18.4506 38.6275 18.327 39.2477 18.3242 39.8742C18.3242 42.4808 20.427 44.5802 24.6357 48.776L25.2012 49.3382L31.8247 42.614C32.0494 42.3859 32.3169 42.2042 32.6118 42.0795C32.9067 41.9547 33.2233 41.8893 33.5435 41.8868C33.8637 41.8844 34.1812 41.9451 34.4779 42.0654C34.7747 42.1857 35.0448 42.3633 35.273 42.588C35.5011 42.8127 35.6827 43.0802 35.8075 43.375C35.9323 43.67 35.9977 43.9865 36.0001 44.3067C36.0025 44.6269 35.9419 44.9445 35.8216 45.2412C35.7013 45.538 35.5237 45.8081 35.299 46.0363L28.6527 52.78L29.098 53.2253C33.3067 57.4178 35.4127 59.5173 38.0257 59.5173C38.6042 59.5173 39.1567 59.4165 39.7125 59.2118C41.6722 58.4902 43.6742 56.4948 46.9535 53.2253ZM55.8812 30.9757C54.6958 32.1568 53.0907 32.8199 51.4173 32.8199C49.744 32.8199 48.1389 32.1568 46.9535 30.9757C46.3668 30.3928 45.9013 29.6996 45.5836 28.936C45.2659 28.1724 45.1023 27.3535 45.1023 26.5265C45.1023 25.6995 45.2659 24.8806 45.5836 24.117C45.9013 23.3534 46.3668 22.6602 46.9535 22.0773C48.1389 20.8962 49.744 20.2331 51.4173 20.2331C53.0907 20.2331 54.6958 20.8962 55.8812 22.0773C56.4679 22.6602 56.9334 23.3534 57.2511 24.117C57.5688 24.8806 57.7324 25.6995 57.7324 26.5265C57.7324 27.3535 57.5688 28.1724 57.2511 28.936C56.9334 29.6996 56.4679 30.3928 55.8812 30.9757Z" fill="white"/>
</svg>
