<svg width="38" height="38" viewBox="0 0 38 38" fill="none" xmlns="http://www.w3.org/2000/svg">
<circle cx="19" cy="19" r="18.5" stroke="white"/>
<path d="M15.9275 11.5195H22.3115C24.7435 11.5195 26.7195 13.4955 26.7195 15.9275V22.3115C26.7195 23.4806 26.2551 24.6018 25.4285 25.4285C24.6018 26.2551 23.4806 26.7195 22.3115 26.7195H15.9275C13.4955 26.7195 11.5195 24.7435 11.5195 22.3115V15.9275C11.5195 14.7585 11.9839 13.6373 12.8106 12.8106C13.6373 11.9839 14.7585 11.5195 15.9275 11.5195ZM15.7755 13.0395C15.0499 13.0395 14.354 13.3278 13.8409 13.8409C13.3278 14.354 13.0395 15.0499 13.0395 15.7755V22.4635C13.0395 23.9759 14.2631 25.1995 15.7755 25.1995H22.4635C23.1892 25.1995 23.8851 24.9113 24.3982 24.3982C24.9113 23.8851 25.1995 23.1892 25.1995 22.4635V15.7755C25.1995 14.2631 23.9759 13.0395 22.4635 13.0395H15.7755ZM23.1095 14.1795C23.3615 14.1795 23.6031 14.2796 23.7813 14.4578C23.9594 14.6359 24.0595 14.8776 24.0595 15.1295C24.0595 15.3815 23.9594 15.6231 23.7813 15.8013C23.6031 15.9794 23.3615 16.0795 23.1095 16.0795C22.8576 16.0795 22.6159 15.9794 22.4378 15.8013C22.2596 15.6231 22.1595 15.3815 22.1595 15.1295C22.1595 14.8776 22.2596 14.6359 22.4378 14.4578C22.6159 14.2796 22.8576 14.1795 23.1095 14.1795ZM19.1195 15.3195C20.1274 15.3195 21.0939 15.7199 21.8065 16.4325C22.5192 17.1452 22.9195 18.1117 22.9195 19.1195C22.9195 20.1274 22.5192 21.0939 21.8065 21.8065C21.0939 22.5192 20.1274 22.9195 19.1195 22.9195C18.1117 22.9195 17.1452 22.5192 16.4325 21.8065C15.7199 21.0939 15.3195 20.1274 15.3195 19.1195C15.3195 18.1117 15.7199 17.1452 16.4325 16.4325C17.1452 15.7199 18.1117 15.3195 19.1195 15.3195ZM19.1195 16.8395C18.5148 16.8395 17.9349 17.0797 17.5073 17.5073C17.0797 17.9349 16.8395 18.5148 16.8395 19.1195C16.8395 19.7242 17.0797 20.3042 17.5073 20.7317C17.9349 21.1593 18.5148 21.3995 19.1195 21.3995C19.7242 21.3995 20.3042 21.1593 20.7317 20.7317C21.1593 20.3042 21.3995 19.7242 21.3995 19.1195C21.3995 18.5148 21.1593 17.9349 20.7317 17.5073C20.3042 17.0797 19.7242 16.8395 19.1195 16.8395Z" fill="white"/>
</svg>
