<svg width="317" height="133" viewBox="0 0 317 133" fill="none" xmlns="http://www.w3.org/2000/svg">
<g filter="url(#filter0_d_1193_1694)">
<rect x="6.09961" y="4.1001" width="304" height="120" rx="8" fill="#FDF6ED"/>
<rect x="6.59961" y="4.6001" width="303" height="119" rx="7.5" stroke="url(#paint0_linear_1193_1694)"/>
<path d="M27.8616 30.5361V43.1001H25.3416V30.5361H27.8616ZM35.8774 32.9841C37.0654 32.9841 38.0254 33.3621 38.7574 34.1181C39.4894 34.8621 39.8554 35.9061 39.8554 37.2501V43.1001H37.3354V37.5921C37.3354 36.8001 37.1374 36.1941 36.7414 35.7741C36.3454 35.3421 35.8054 35.1261 35.1214 35.1261C34.4254 35.1261 33.8734 35.3421 33.4654 35.7741C33.0694 36.1941 32.8714 36.8001 32.8714 37.5921V43.1001H30.3514V33.1281H32.8714V34.3701C33.2074 33.9381 33.6334 33.6021 34.1494 33.3621C34.6774 33.1101 35.2534 32.9841 35.8774 32.9841ZM45.1858 35.1981V40.0221C45.1858 40.3581 45.2638 40.6041 45.4198 40.7601C45.5878 40.9041 45.8638 40.9761 46.2478 40.9761H47.4178V43.1001H45.8338C43.7098 43.1001 42.6478 42.0681 42.6478 40.0041V35.1981H41.4598V33.1281H42.6478V30.6621H45.1858V33.1281H47.4178V35.1981H45.1858ZM51.7503 34.6761C52.0743 34.1481 52.4943 33.7341 53.0103 33.4341C53.5383 33.1341 54.1383 32.9841 54.8103 32.9841V35.6301H54.1443C53.3523 35.6301 52.7523 35.8161 52.3443 36.1881C51.9483 36.5601 51.7503 37.2081 51.7503 38.1321V43.1001H49.2303V33.1281H51.7503V34.6761ZM60.9356 43.2621C59.9756 43.2621 59.1116 43.0521 58.3436 42.6321C57.5756 42.2001 56.9696 41.5941 56.5256 40.8141C56.0936 40.0341 55.8776 39.1341 55.8776 38.1141C55.8776 37.0941 56.0996 36.1941 56.5436 35.4141C56.9996 34.6341 57.6176 34.0341 58.3976 33.6141C59.1776 33.1821 60.0476 32.9661 61.0076 32.9661C61.9676 32.9661 62.8376 33.1821 63.6176 33.6141C64.3976 34.0341 65.0096 34.6341 65.4536 35.4141C65.9096 36.1941 66.1376 37.0941 66.1376 38.1141C66.1376 39.1341 65.9036 40.0341 65.4356 40.8141C64.9796 41.5941 64.3556 42.2001 63.5636 42.6321C62.7836 43.0521 61.9076 43.2621 60.9356 43.2621ZM60.9356 41.0661C61.3916 41.0661 61.8176 40.9581 62.2136 40.7421C62.6216 40.5141 62.9456 40.1781 63.1856 39.7341C63.4256 39.2901 63.5456 38.7501 63.5456 38.1141C63.5456 37.1661 63.2936 36.4401 62.7896 35.9361C62.2976 35.4201 61.6916 35.1621 60.9716 35.1621C60.2516 35.1621 59.6456 35.4201 59.1536 35.9361C58.6736 36.4401 58.4336 37.1661 58.4336 38.1141C58.4336 39.0621 58.6676 39.7941 59.1356 40.3101C59.6156 40.8141 60.2156 41.0661 60.9356 41.0661ZM67.3381 38.0781C67.3381 37.0701 67.5361 36.1761 67.9321 35.3961C68.3401 34.6161 68.8921 34.0161 69.5881 33.5961C70.2841 33.1761 71.0581 32.9661 71.9101 32.9661C72.5581 32.9661 73.1761 33.1101 73.7641 33.3981C74.3521 33.6741 74.8201 34.0461 75.1681 34.5141V29.7801H77.7241V43.1001H75.1681V41.6241C74.8561 42.1161 74.4181 42.5121 73.8541 42.8121C73.2901 43.1121 72.6361 43.2621 71.8921 43.2621C71.0521 43.2621 70.2841 43.0461 69.5881 42.6141C68.8921 42.1821 68.3401 41.5761 67.9321 40.7961C67.5361 40.0041 67.3381 39.0981 67.3381 38.0781ZM75.1861 38.1141C75.1861 37.5021 75.0661 36.9801 74.8261 36.5481C74.5861 36.1041 74.2621 35.7681 73.8541 35.5401C73.4461 35.3001 73.0081 35.1801 72.5401 35.1801C72.0721 35.1801 71.6401 35.2941 71.2441 35.5221C70.8481 35.7501 70.5241 36.0861 70.2721 36.5301C70.0321 36.9621 69.9121 37.4781 69.9121 38.0781C69.9121 38.6781 70.0321 39.2061 70.2721 39.6621C70.5241 40.1061 70.8481 40.4481 71.2441 40.6881C71.6521 40.9281 72.0841 41.0481 72.5401 41.0481C73.0081 41.0481 73.4461 40.9341 73.8541 40.7061C74.2621 40.4661 74.5861 40.1301 74.8261 39.6981C75.0661 39.2541 75.1861 38.7261 75.1861 38.1141ZM89.5994 33.1281V43.1001H87.0614V41.8401C86.7374 42.2721 86.3114 42.6141 85.7834 42.8661C85.2674 43.1061 84.7034 43.2261 84.0914 43.2261C83.3114 43.2261 82.6214 43.0641 82.0214 42.7401C81.4214 42.4041 80.9474 41.9181 80.5994 41.2821C80.2634 40.6341 80.0954 39.8661 80.0954 38.9781V33.1281H82.6154V38.6181C82.6154 39.4101 82.8134 40.0221 83.2094 40.4541C83.6054 40.8741 84.1454 41.0841 84.8294 41.0841C85.5254 41.0841 86.0714 40.8741 86.4674 40.4541C86.8634 40.0221 87.0614 39.4101 87.0614 38.6181V33.1281H89.5994ZM91.4377 38.1141C91.4377 37.0821 91.6478 36.1821 92.0678 35.4141C92.4878 34.6341 93.0698 34.0341 93.8138 33.6141C94.5578 33.1821 95.4098 32.9661 96.3698 32.9661C97.6058 32.9661 98.6258 33.2781 99.4298 33.9021C100.246 34.5141 100.792 35.3781 101.068 36.4941H98.3498C98.2058 36.0621 97.9598 35.7261 97.6118 35.4861C97.2758 35.2341 96.8558 35.1081 96.3518 35.1081C95.6318 35.1081 95.0618 35.3721 94.6418 35.9001C94.2218 36.4161 94.0118 37.1541 94.0118 38.1141C94.0118 39.0621 94.2218 39.8001 94.6418 40.3281C95.0618 40.8441 95.6318 41.1021 96.3518 41.1021C97.3718 41.1021 98.0378 40.6461 98.3498 39.7341H101.068C100.792 40.8141 100.246 41.6721 99.4298 42.3081C98.6138 42.9441 97.5938 43.2621 96.3698 43.2621C95.4098 43.2621 94.5578 43.0521 93.8138 42.6321C93.0698 42.2001 92.4878 41.6001 92.0678 40.8321C91.6478 40.0521 91.4377 39.1461 91.4377 38.1141ZM105.848 35.1981V40.0221C105.848 40.3581 105.926 40.6041 106.082 40.7601C106.25 40.9041 106.526 40.9761 106.91 40.9761H108.08V43.1001H106.496C104.372 43.1001 103.31 42.0681 103.31 40.0041V35.1981H102.122V33.1281H103.31V30.6621H105.848V33.1281H108.08V35.1981H105.848ZM111.17 31.9401C110.726 31.9401 110.354 31.8021 110.054 31.5261C109.766 31.2381 109.622 30.8841 109.622 30.4641C109.622 30.0441 109.766 29.6961 110.054 29.4201C110.354 29.1321 110.726 28.9881 111.17 28.9881C111.614 28.9881 111.98 29.1321 112.268 29.4201C112.568 29.6961 112.718 30.0441 112.718 30.4641C112.718 30.8841 112.568 31.2381 112.268 31.5261C111.98 31.8021 111.614 31.9401 111.17 31.9401ZM112.412 33.1281V43.1001H109.892V33.1281H112.412ZM119.33 43.2621C118.37 43.2621 117.506 43.0521 116.738 42.6321C115.97 42.2001 115.364 41.5941 114.92 40.8141C114.488 40.0341 114.272 39.1341 114.272 38.1141C114.272 37.0941 114.494 36.1941 114.938 35.4141C115.394 34.6341 116.012 34.0341 116.792 33.6141C117.572 33.1821 118.442 32.9661 119.402 32.9661C120.362 32.9661 121.232 33.1821 122.012 33.6141C122.792 34.0341 123.404 34.6341 123.848 35.4141C124.304 36.1941 124.532 37.0941 124.532 38.1141C124.532 39.1341 124.298 40.0341 123.83 40.8141C123.374 41.5941 122.75 42.2001 121.958 42.6321C121.178 43.0521 120.302 43.2621 119.33 43.2621ZM119.33 41.0661C119.786 41.0661 120.212 40.9581 120.608 40.7421C121.016 40.5141 121.34 40.1781 121.58 39.7341C121.82 39.2901 121.94 38.7501 121.94 38.1141C121.94 37.1661 121.688 36.4401 121.184 35.9361C120.692 35.4201 120.086 35.1621 119.366 35.1621C118.646 35.1621 118.04 35.4201 117.548 35.9361C117.068 36.4401 116.828 37.1661 116.828 38.1141C116.828 39.0621 117.062 39.7941 117.53 40.3101C118.01 40.8141 118.61 41.0661 119.33 41.0661ZM131.907 32.9841C133.095 32.9841 134.055 33.3621 134.787 34.1181C135.519 34.8621 135.885 35.9061 135.885 37.2501V43.1001H133.365V37.5921C133.365 36.8001 133.167 36.1941 132.771 35.7741C132.375 35.3421 131.835 35.1261 131.151 35.1261C130.455 35.1261 129.903 35.3421 129.495 35.7741C129.099 36.1941 128.901 36.8001 128.901 37.5921V43.1001H126.381V33.1281H128.901V34.3701C129.237 33.9381 129.663 33.6021 130.179 33.3621C130.707 33.1101 131.283 32.9841 131.907 32.9841Z" fill="#575656"/>
<rect x="24.0996" y="65.1001" width="119" height="8" rx="4" fill="#A6ACB1"/>
<rect x="24.0996" y="81.1001" width="268" height="8" rx="4" fill="#A6ACB1"/>
<rect x="24.0996" y="97.1001" width="268" height="8" rx="4" fill="#FFC87D"/>
</g>
<defs>
<filter id="filter0_d_1193_1694" x="-0.00039053" y="9.77516e-05" width="316.2" height="132.2" filterUnits="userSpaceOnUse" color-interpolation-filters="sRGB">
<feFlood flood-opacity="0" result="BackgroundImageFix"/>
<feColorMatrix in="SourceAlpha" type="matrix" values="0 0 0 0 0 0 0 0 0 0 0 0 0 0 0 0 0 0 127 0" result="hardAlpha"/>
<feOffset dy="2"/>
<feGaussianBlur stdDeviation="3.05"/>
<feComposite in2="hardAlpha" operator="out"/>
<feColorMatrix type="matrix" values="0 0 0 0 0 0 0 0 0 0 0 0 0 0 0 0 0 0 0.25 0"/>
<feBlend mode="normal" in2="BackgroundImageFix" result="effect1_dropShadow_1193_1694"/>
<feBlend mode="normal" in="SourceGraphic" in2="effect1_dropShadow_1193_1694" result="shape"/>
</filter>
<linearGradient id="paint0_linear_1193_1694" x1="-27.5084" y1="-13.8999" x2="355.185" y2="75.9712" gradientUnits="userSpaceOnUse">
<stop stop-color="white" stop-opacity="0.1"/>
<stop offset="1" stop-color="#AFAFAF" stop-opacity="0.1"/>
</linearGradient>
</defs>
</svg>
