<svg width="38" height="38" viewBox="0 0 38 38" fill="none" xmlns="http://www.w3.org/2000/svg">
<circle cx="19" cy="19" r="18.5" stroke="white"/>
<path d="M24.4403 12.2803C24.8434 12.2803 25.23 12.4404 25.5151 12.7255C25.8001 13.0105 25.9603 13.3971 25.9603 13.8003V24.4403C25.9603 24.8434 25.8001 25.23 25.5151 25.5151C25.23 25.8001 24.8434 25.9603 24.4403 25.9603H13.8003C13.3971 25.9603 13.0105 25.8001 12.7255 25.5151C12.4404 25.23 12.2803 24.8434 12.2803 24.4403V13.8003C12.2803 13.3971 12.4404 13.0105 12.7255 12.7255C13.0105 12.4404 13.3971 12.2803 13.8003 12.2803H24.4403ZM24.0603 24.0603V20.0323C24.0603 19.3752 23.7992 18.745 23.3346 18.2803C22.87 17.8157 22.2398 17.5547 21.5827 17.5547C20.9367 17.5547 20.1843 17.9499 19.8195 18.5427V17.6991H17.6991V24.0603H19.8195V20.3135C19.8195 19.7283 20.2907 19.2495 20.8759 19.2495C21.1581 19.2495 21.4287 19.3616 21.6282 19.5611C21.8278 19.7607 21.9399 20.0313 21.9399 20.3135V24.0603H24.0603ZM15.2291 16.5059C15.5677 16.5059 15.8925 16.3714 16.1319 16.1319C16.3714 15.8925 16.5059 15.5677 16.5059 15.2291C16.5059 14.5223 15.9359 13.9447 15.2291 13.9447C14.8884 13.9447 14.5617 14.08 14.3209 14.3209C14.08 14.5617 13.9447 14.8884 13.9447 15.2291C13.9447 15.9359 14.5223 16.5059 15.2291 16.5059ZM16.2855 24.0603V17.6991H14.1803V24.0603H16.2855Z" fill="white"/>
</svg>
