<svg width="32" height="32" viewBox="0 0 32 32" fill="none" xmlns="http://www.w3.org/2000/svg">
<path d="M13.4867 29.081C14.2947 29.7477 15.1373 30.357 16 30.9517C16.8645 30.3649 17.7031 29.7408 18.5133 29.081C19.864 27.972 21.1351 26.7695 22.3173 25.4823C25.0427 22.5023 28 18.1823 28 13.333C28 11.7571 27.6896 10.1967 27.0866 8.74081C26.4835 7.2849 25.5996 5.96203 24.4853 4.84773C23.371 3.73342 22.0481 2.84951 20.5922 2.24645C19.1363 1.6434 17.5759 1.33301 16 1.33301C14.4241 1.33301 12.8637 1.6434 11.4078 2.24645C9.95189 2.84951 8.62902 3.73342 7.51472 4.84773C6.40042 5.96203 5.5165 7.2849 4.91345 8.74081C4.31039 10.1967 4 11.7571 4 13.333C4 18.1823 6.95733 22.501 9.68267 25.4823C10.8648 26.7699 12.136 27.9715 13.4867 29.081ZM16 17.6663C14.8507 17.6663 13.7485 17.2098 12.9359 16.3971C12.1232 15.5845 11.6667 14.4823 11.6667 13.333C11.6667 12.1837 12.1232 11.0815 12.9359 10.2689C13.7485 9.45622 14.8507 8.99968 16 8.99968C17.1493 8.99968 18.2515 9.45622 19.0641 10.2689C19.8768 11.0815 20.3333 12.1837 20.3333 13.333C20.3333 14.4823 19.8768 15.5845 19.0641 16.3971C18.2515 17.2098 17.1493 17.6663 16 17.6663Z" fill="white"/>
</svg>
