<svg width="39" height="41" viewBox="0 0 39 41" fill="none" xmlns="http://www.w3.org/2000/svg">
<rect width="39" height="41" rx="8" fill="url(#paint0_linear_1193_1666)"/>
<path d="M13.6801 21.0073C14.3915 22.568 16.6085 22.568 17.3199 21.0073L20.7055 13.5795C21.3092 12.2551 20.3411 10.75 18.8856 10.75H12.1144C10.6589 10.75 9.69084 12.2551 10.2945 13.5795L13.6801 21.0073Z" fill="#F8A44A"/>
<path d="M21.6801 19.9927C22.3915 18.432 24.6085 18.432 25.3199 19.9927L28.7055 27.4205C29.3092 28.7449 28.3411 30.25 26.8856 30.25H20.1144C18.6589 30.25 17.6908 28.7449 18.2945 27.4205L21.6801 19.9927Z" fill="#3CA041"/>
<path d="M23.067 23.75C23.2594 23.4167 23.7406 23.4167 23.933 23.75L25.2321 26C25.4245 26.3333 25.1839 26.75 24.799 26.75H22.201C21.8161 26.75 21.5755 26.3333 21.7679 26L23.067 23.75Z" fill="white"/>
<defs>
<linearGradient id="paint0_linear_1193_1666" x1="2" y1="-4.5" x2="30" y2="41" gradientUnits="userSpaceOnUse">
<stop stop-color="#FFF1E6"/>
<stop offset="1" stop-color="#FFDBBF"/>
</linearGradient>
</defs>
</svg>
