<svg width="32" height="32" viewBox="0 0 32 32" fill="none" xmlns="http://www.w3.org/2000/svg">
<path d="M29.3327 10.0459V22.6659C29.3327 23.6862 28.9429 24.6679 28.243 25.4102C27.543 26.1526 26.5859 26.5994 25.5673 26.6592L25.3327 26.6659H6.66602C5.64573 26.666 4.664 26.2761 3.92167 25.5762C3.17934 24.8762 2.73254 23.9191 2.67268 22.9006L2.66602 22.6659V10.0459L15.2593 18.4419L15.414 18.5299C15.5963 18.619 15.7965 18.6652 15.9993 18.6652C16.2022 18.6652 16.4024 18.619 16.5847 18.5299L16.7393 18.4419L29.3327 10.0459Z" fill="white"/>
<path d="M25.3331 5.33301C26.7731 5.33301 28.0358 6.09301 28.7398 7.23567L15.9998 15.729L3.25977 7.23567C3.59416 6.69277 4.05349 6.23768 4.59946 5.90833C5.14544 5.57898 5.76224 5.38492 6.39843 5.34234L6.66643 5.33301H25.3331Z" fill="white"/>
</svg>
