<svg width="76" height="76" viewBox="0 0 76 76" fill="none" xmlns="http://www.w3.org/2000/svg">
<circle cx="38" cy="38" r="38" fill="#EF578F"/>
<path d="M36.0519 30.32L30.3719 40.88L27.0919 41.76C27.4652 41.0667 27.8919 40.48 28.3719 40C28.9052 39.52 29.4652 39.28 30.0519 39.28C31.4385 39.28 32.6919 39.8667 33.8119 41.04C34.9852 42.2133 35.5719 43.68 35.5719 45.44C35.5719 47.3067 34.9319 48.9333 33.6519 50.32C32.3719 51.6533 30.7985 52.32 28.9319 52.32C27.1185 52.32 25.5452 51.6533 24.2119 50.32C22.8785 48.9867 22.2119 47.36 22.2119 45.44C22.2119 44.6933 22.3719 43.8133 22.6919 42.8C23.0119 41.7333 23.5985 40.4 24.4519 38.8L30.6119 27.44L36.0519 30.32ZM53.2519 30.32L47.5719 40.88L44.2919 41.76C44.6652 41.0667 45.0919 40.48 45.5719 40C46.0519 39.52 46.6119 39.28 47.2519 39.28C48.6385 39.28 49.8919 39.8667 51.0119 41.04C52.1852 42.2133 52.7719 43.68 52.7719 45.44C52.7719 47.3067 52.1052 48.9333 50.7719 50.32C49.4919 51.6533 47.9185 52.32 46.0519 52.32C44.2919 52.32 42.7452 51.6533 41.4119 50.32C40.0785 48.9867 39.4119 47.36 39.4119 45.44C39.4119 44.6933 39.5719 43.8133 39.8919 42.8C40.2119 41.7333 40.7985 40.4 41.6519 38.8L47.8119 27.44L53.2519 30.32Z" fill="white"/>
</svg>
