<svg width="473" height="166" viewBox="0 0 473 166" fill="none" xmlns="http://www.w3.org/2000/svg">
<g filter="url(#filter0_i_1193_1972)">
<path d="M43.6958 81.7082C44.8932 78.023 50.1068 78.023 51.3042 81.7082L57.2664 100.058C57.8019 101.706 59.3377 102.822 61.0706 102.822H80.3644C84.2393 102.822 85.8504 107.78 82.7156 110.058L67.1065 121.398C65.7046 122.417 65.1179 124.222 65.6534 125.871L71.6156 144.22C72.813 147.905 68.5951 150.97 65.4602 148.692L49.8511 137.352C48.4492 136.333 46.5508 136.333 45.1489 137.352L29.5398 148.692C26.4049 150.97 22.187 147.905 23.3844 144.22L29.3466 125.871C29.8821 124.222 29.2954 122.417 27.8935 121.398L12.2844 110.058C9.14956 107.78 10.7607 102.822 14.6355 102.822H33.9294C35.6623 102.822 37.1981 101.706 37.7336 100.058L43.6958 81.7082Z" fill="url(#paint0_radial_1193_1972)"/>
</g>
<path d="M45.1221 82.1719C45.8705 79.8686 49.1296 79.8686 49.8779 82.1719L55.8398 100.521C56.5762 102.787 58.6877 104.321 61.0703 104.321H80.3643C82.786 104.321 83.7929 107.42 81.834 108.844L66.2246 120.185C64.297 121.585 63.4903 124.068 64.2266 126.334L70.1895 144.684C70.9377 146.987 68.301 148.902 66.3418 147.479L50.7324 136.138C48.8049 134.738 46.1951 134.738 44.2676 136.138L28.6582 147.479C26.6989 148.902 24.0623 146.987 24.8105 144.684L30.7734 126.334C31.5097 124.068 30.703 121.585 28.7754 120.185L13.166 108.845C11.2067 107.421 12.2139 104.321 14.6357 104.321H33.9297C36.3122 104.321 38.4238 102.787 39.1602 100.521L45.1221 82.1719Z" stroke="#E2E2E2" stroke-width="3"/>
<g filter="url(#filter1_i_1193_1972)">
<path d="M127.196 44.7082C128.393 41.023 133.607 41.023 134.804 44.7082L144.022 73.077C144.557 74.7251 146.093 75.8409 147.826 75.8409H177.655C181.53 75.8409 183.141 80.7994 180.006 83.077L155.874 100.61C154.472 101.628 153.885 103.434 154.421 105.082L163.638 133.451C164.836 137.136 160.618 140.201 157.483 137.923L133.351 120.39C131.949 119.372 130.051 119.372 128.649 120.39L104.517 137.923C101.382 140.201 97.1641 137.136 98.3615 133.451L107.579 105.082C108.115 103.434 107.528 101.628 106.126 100.61L81.9941 83.077C78.8592 80.7994 80.4703 75.8409 84.3452 75.8409H114.174C115.907 75.8409 117.443 74.7251 117.978 73.077L127.196 44.7082Z" fill="url(#paint1_radial_1193_1972)"/>
</g>
<path d="M128.622 45.1719C129.37 42.8686 132.63 42.8686 133.378 45.1719L142.596 73.541C143.332 75.8068 145.444 77.3408 147.826 77.3408H177.654C180.076 77.3408 181.083 80.4398 179.124 81.8633L154.992 99.3965C153.065 100.797 152.258 103.28 152.994 105.546L162.212 133.914C162.96 136.217 160.325 138.132 158.365 136.709L134.232 119.177C132.305 117.776 129.695 117.776 127.768 119.177L103.635 136.709C101.675 138.132 99.0397 136.217 99.7881 133.914L109.006 105.546C109.742 103.28 108.935 100.797 107.008 99.3965L82.876 81.8633C80.9167 80.4398 81.9239 77.3408 84.3457 77.3408H114.174C116.556 77.3408 118.668 75.8068 119.404 73.541L128.622 45.1719Z" stroke="#E2E2E2" stroke-width="3"/>
<g filter="url(#filter2_i_1193_1972)">
<path d="M232.696 11.7082C233.893 8.02295 239.107 8.02296 240.304 11.7082L251.206 45.2594C251.741 46.9075 253.277 48.0233 255.01 48.0233L290.288 48.0233C294.163 48.0233 295.774 52.9818 292.639 55.2594L264.098 75.9952C262.697 77.0137 262.11 78.8192 262.645 80.4673L273.547 114.018C274.744 117.704 270.526 120.768 267.391 118.491L238.851 97.7548C237.449 96.7363 235.551 96.7363 234.149 97.7548L205.609 118.491C202.474 120.768 198.256 117.704 199.453 114.018L210.355 80.4673C210.89 78.8192 210.303 77.0137 208.902 75.9952L180.361 55.2594C177.226 52.9818 178.837 48.0233 182.712 48.0233L217.99 48.0233C219.723 48.0233 221.259 46.9075 221.794 45.2594L232.696 11.7082Z" fill="url(#paint2_radial_1193_1972)"/>
</g>
<path d="M234.122 12.1719C234.87 9.86861 238.13 9.86859 238.878 12.1719L249.779 45.7227C250.516 47.9887 252.627 49.5234 255.01 49.5234H290.288C292.71 49.5238 293.716 52.6225 291.757 54.0459L263.217 74.7812C261.289 76.1818 260.483 78.6646 261.219 80.9307L272.12 114.482C272.868 116.785 270.233 118.7 268.273 117.277L239.732 96.541C237.805 95.1409 235.195 95.1409 233.268 96.541L204.727 117.277C202.767 118.7 200.132 116.785 200.88 114.482L211.781 80.9307C212.517 78.6646 211.711 76.1818 209.783 74.7812L181.243 54.0459C179.284 52.6225 180.29 49.5238 182.712 49.5234H217.99C220.373 49.5234 222.484 47.9887 223.221 45.7227L234.122 12.1719Z" stroke="#E2E2E2" stroke-width="3"/>
<g filter="url(#filter3_i_1193_1972)">
<path d="M336.196 44.7082C337.393 41.023 342.607 41.023 343.804 44.7082L353.022 73.077C353.557 74.7251 355.093 75.8409 356.826 75.8409H386.655C390.53 75.8409 392.141 80.7994 389.006 83.077L364.874 100.61C363.472 101.628 362.885 103.434 363.421 105.082L372.638 133.451C373.836 137.136 369.618 140.201 366.483 137.923L342.351 120.39C340.949 119.372 339.051 119.372 337.649 120.39L313.517 137.923C310.382 140.201 306.164 137.136 307.362 133.451L316.579 105.082C317.115 103.434 316.528 101.628 315.126 100.61L290.994 83.077C287.859 80.7994 289.47 75.8409 293.345 75.8409H323.174C324.907 75.8409 326.443 74.7251 326.978 73.077L336.196 44.7082Z" fill="url(#paint3_radial_1193_1972)"/>
</g>
<path d="M337.622 45.1719C338.37 42.8686 341.63 42.8686 342.378 45.1719L351.596 73.541C352.332 75.8068 354.444 77.3408 356.826 77.3408H386.654C389.076 77.3408 390.083 80.4398 388.124 81.8633L363.992 99.3965C362.065 100.797 361.258 103.28 361.994 105.546L371.212 133.914C371.96 136.217 369.325 138.132 367.365 136.709L343.232 119.177C341.305 117.776 338.695 117.776 336.768 119.177L312.635 136.709C310.675 138.132 308.04 136.217 308.788 133.914L318.006 105.546C318.742 103.28 317.935 100.797 316.008 99.3965L291.876 81.8633C289.917 80.4398 290.924 77.3408 293.346 77.3408H323.174C325.556 77.3408 327.668 75.8068 328.404 73.541L337.622 45.1719Z" stroke="#E2E2E2" stroke-width="3"/>
<g filter="url(#filter4_i_1193_1972)">
<path d="M421.696 82.7082C422.893 79.023 428.107 79.023 429.304 82.7082L435.266 101.058C435.802 102.706 437.338 103.822 439.071 103.822H458.364C462.239 103.822 463.85 108.78 460.716 111.058L445.107 122.398C443.705 123.417 443.118 125.222 443.653 126.871L449.616 145.22C450.813 148.905 446.595 151.97 443.46 149.692L427.851 138.352C426.449 137.333 424.551 137.333 423.149 138.352L407.54 149.692C404.405 151.97 400.187 148.905 401.384 145.22L407.347 126.871C407.882 125.222 407.295 123.417 405.893 122.398L390.284 111.058C387.15 108.78 388.761 103.822 392.636 103.822H411.929C413.662 103.822 415.198 102.706 415.734 101.058L421.696 82.7082Z" fill="url(#paint4_radial_1193_1972)"/>
</g>
<path d="M423.122 83.1719C423.87 80.8686 427.13 80.8686 427.878 83.1719L433.84 101.521C434.576 103.787 436.688 105.321 439.07 105.321H458.364C460.786 105.321 461.793 108.42 459.834 109.844L444.225 121.185C442.297 122.585 441.49 125.068 442.227 127.334L448.189 145.684C448.938 147.987 446.301 149.902 444.342 148.479L428.732 137.138C426.805 135.738 424.195 135.738 422.268 137.138L406.658 148.479C404.699 149.902 402.062 147.987 402.811 145.684L408.773 127.334C409.51 125.068 408.703 122.585 406.775 121.185L391.166 109.845C389.207 108.421 390.214 105.321 392.636 105.321H411.93C414.312 105.321 416.424 103.787 417.16 101.521L423.122 83.1719Z" stroke="#E2E2E2" stroke-width="3"/>
<defs>
<filter id="filter0_i_1193_1972" x="10.6279" y="78.9443" width="81.7441" height="79.5303" filterUnits="userSpaceOnUse" color-interpolation-filters="sRGB">
<feFlood flood-opacity="0" result="BackgroundImageFix"/>
<feBlend mode="normal" in="SourceGraphic" in2="BackgroundImageFix" result="shape"/>
<feColorMatrix in="SourceAlpha" type="matrix" values="0 0 0 0 0 0 0 0 0 0 0 0 0 0 0 0 0 0 127 0" result="hardAlpha"/>
<feOffset dx="8" dy="9"/>
<feGaussianBlur stdDeviation="12.4"/>
<feComposite in2="hardAlpha" operator="arithmetic" k2="-1" k3="1"/>
<feColorMatrix type="matrix" values="0 0 0 0 0 0 0 0 0 0 0 0 0 0 0 0 0 0 0.4 0"/>
<feBlend mode="normal" in2="shape" result="effect1_innerShadow_1193_1972"/>
</filter>
<filter id="filter1_i_1193_1972" x="80.3379" y="41.9443" width="109.324" height="105.761" filterUnits="userSpaceOnUse" color-interpolation-filters="sRGB">
<feFlood flood-opacity="0" result="BackgroundImageFix"/>
<feBlend mode="normal" in="SourceGraphic" in2="BackgroundImageFix" result="shape"/>
<feColorMatrix in="SourceAlpha" type="matrix" values="0 0 0 0 0 0 0 0 0 0 0 0 0 0 0 0 0 0 127 0" result="hardAlpha"/>
<feOffset dx="8" dy="9"/>
<feGaussianBlur stdDeviation="12.4"/>
<feComposite in2="hardAlpha" operator="arithmetic" k2="-1" k3="1"/>
<feColorMatrix type="matrix" values="0 0 0 0 0 0 0 0 0 0 0 0 0 0 0 0 0 0 0.4 0"/>
<feBlend mode="normal" in2="shape" result="effect1_innerShadow_1193_1972"/>
</filter>
<filter id="filter2_i_1193_1972" x="178.705" y="8.94434" width="123.59" height="119.328" filterUnits="userSpaceOnUse" color-interpolation-filters="sRGB">
<feFlood flood-opacity="0" result="BackgroundImageFix"/>
<feBlend mode="normal" in="SourceGraphic" in2="BackgroundImageFix" result="shape"/>
<feColorMatrix in="SourceAlpha" type="matrix" values="0 0 0 0 0 0 0 0 0 0 0 0 0 0 0 0 0 0 127 0" result="hardAlpha"/>
<feOffset dx="8" dy="9"/>
<feGaussianBlur stdDeviation="12.4"/>
<feComposite in2="hardAlpha" operator="arithmetic" k2="-1" k3="1"/>
<feColorMatrix type="matrix" values="0 0 0 0 0 0 0 0 0 0 0 0 0 0 0 0 0 0 0.4 0"/>
<feBlend mode="normal" in2="shape" result="effect1_innerShadow_1193_1972"/>
</filter>
<filter id="filter3_i_1193_1972" x="289.338" y="41.9443" width="109.324" height="105.761" filterUnits="userSpaceOnUse" color-interpolation-filters="sRGB">
<feFlood flood-opacity="0" result="BackgroundImageFix"/>
<feBlend mode="normal" in="SourceGraphic" in2="BackgroundImageFix" result="shape"/>
<feColorMatrix in="SourceAlpha" type="matrix" values="0 0 0 0 0 0 0 0 0 0 0 0 0 0 0 0 0 0 127 0" result="hardAlpha"/>
<feOffset dx="8" dy="9"/>
<feGaussianBlur stdDeviation="12.4"/>
<feComposite in2="hardAlpha" operator="arithmetic" k2="-1" k3="1"/>
<feColorMatrix type="matrix" values="0 0 0 0 0 0 0 0 0 0 0 0 0 0 0 0 0 0 0.4 0"/>
<feBlend mode="normal" in2="shape" result="effect1_innerShadow_1193_1972"/>
</filter>
<filter id="filter4_i_1193_1972" x="388.628" y="79.9443" width="81.7441" height="79.5303" filterUnits="userSpaceOnUse" color-interpolation-filters="sRGB">
<feFlood flood-opacity="0" result="BackgroundImageFix"/>
<feBlend mode="normal" in="SourceGraphic" in2="BackgroundImageFix" result="shape"/>
<feColorMatrix in="SourceAlpha" type="matrix" values="0 0 0 0 0 0 0 0 0 0 0 0 0 0 0 0 0 0 127 0" result="hardAlpha"/>
<feOffset dx="8" dy="9"/>
<feGaussianBlur stdDeviation="12.4"/>
<feComposite in2="hardAlpha" operator="arithmetic" k2="-1" k3="1"/>
<feColorMatrix type="matrix" values="0 0 0 0 0 0 0 0 0 0 0 0 0 0 0 0 0 0 0.4 0"/>
<feBlend mode="normal" in2="shape" result="effect1_innerShadow_1193_1972"/>
</filter>
<radialGradient id="paint0_radial_1193_1972" cx="0" cy="0" r="1" gradientUnits="userSpaceOnUse" gradientTransform="translate(47.5 117.5) rotate(90) scale(47.5)">
<stop stop-color="#FFDE07"/>
<stop offset="1" stop-color="#FFAE00"/>
</radialGradient>
<radialGradient id="paint1_radial_1193_1972" cx="0" cy="0" r="1" gradientUnits="userSpaceOnUse" gradientTransform="translate(131 95) rotate(90) scale(62)">
<stop stop-color="#FFDE07"/>
<stop offset="1" stop-color="#FFAE00"/>
</radialGradient>
<radialGradient id="paint2_radial_1193_1972" cx="0" cy="0" r="1" gradientUnits="userSpaceOnUse" gradientTransform="translate(236.5 69.5) rotate(90) scale(69.5)">
<stop stop-color="#FFDE07"/>
<stop offset="1" stop-color="#FFAE00"/>
</radialGradient>
<radialGradient id="paint3_radial_1193_1972" cx="0" cy="0" r="1" gradientUnits="userSpaceOnUse" gradientTransform="translate(340 95) rotate(90) scale(62)">
<stop stop-color="#FFDE07"/>
<stop offset="1" stop-color="#FFAE00"/>
</radialGradient>
<radialGradient id="paint4_radial_1193_1972" cx="0" cy="0" r="1" gradientUnits="userSpaceOnUse" gradientTransform="translate(425.5 118.5) rotate(90) scale(47.5)">
<stop stop-color="#FFDE07"/>
<stop offset="1" stop-color="#FFAE00"/>
</radialGradient>
</defs>
</svg>
