<svg width="78" height="69" viewBox="0 0 78 69" fill="none" xmlns="http://www.w3.org/2000/svg">
<path d="M38.7861 0L40.6673 26.6709L54.6489 2.98268L44.1044 28.0246L67.7688 11.415L46.6219 30.498L75.8773 23.8389L47.7846 33.6634L77.5725 38.1062L47.3913 36.9734L72.5611 51.75L45.5101 39.8557L61.7098 62.4111L42.4663 41.812L46.8947 68.2461L38.7861 42.504L30.6776 68.2461L35.106 41.812L15.8625 62.4111L32.0622 39.8557L5.01114 51.75L30.181 36.9734L-0.000221252 38.1062L29.7877 33.6634L1.69493 23.8389L30.9503 30.498L9.80348 11.415L33.4679 28.0246L22.9234 2.98268L36.9049 26.6709L38.7861 0Z" fill="#FED701"/>
</svg>
